<mxfile host="Electron" modified="2024-01-01T02:39:59.805Z" agent="Mozilla/5.0 (Windows NT 10.0; Win64; x64) AppleWebKit/537.36 (KHTML, like Gecko) draw.io/22.1.16 Chrome/120.0.6099.109 Electron/28.1.0 Safari/537.36" etag="FiFHRiKFiCAXd7PnB5ez" version="22.1.16" type="device">
  <diagram name="第 1 页" id="v_63dtOseGeEyuHa1l9c">
    <mxGraphModel dx="2773" dy="3317" grid="1" gridSize="10" guides="1" tooltips="1" connect="1" arrows="1" fold="1" page="1" pageScale="1" pageWidth="827" pageHeight="1169" math="0" shadow="0">
      <root>
        <mxCell id="0" />
        <mxCell id="1" parent="0" />
        <mxCell id="VkaKx_zABPlLzsSXGRaH-1" value="输入输出函数" style="text;html=1;strokeColor=none;fillColor=none;align=center;verticalAlign=middle;whiteSpace=wrap;rounded=0;fontSize=26;fontStyle=1" vertex="1" parent="1">
          <mxGeometry x="221" y="30" width="386" height="70" as="geometry" />
        </mxCell>
        <mxCell id="VkaKx_zABPlLzsSXGRaH-20" value="" style="group" vertex="1" connectable="0" parent="1">
          <mxGeometry x="209" y="140" width="408.57" height="260" as="geometry" />
        </mxCell>
        <mxCell id="VkaKx_zABPlLzsSXGRaH-2" value="printf()" style="rounded=1;whiteSpace=wrap;html=1;fillColor=#a20025;strokeColor=#6F0000;fontStyle=1;fontSize=16;fontColor=#ffffff;" vertex="1" parent="VkaKx_zABPlLzsSXGRaH-20">
          <mxGeometry x="157.8565909090909" width="92.85681818181818" height="46.42857142857143" as="geometry" />
        </mxCell>
        <mxCell id="VkaKx_zABPlLzsSXGRaH-3" value="头文件" style="rounded=1;whiteSpace=wrap;html=1;fillColor=#fff2cc;strokeColor=#d6b656;" vertex="1" parent="VkaKx_zABPlLzsSXGRaH-20">
          <mxGeometry x="9.285681818181818" y="83.57142857142857" width="64.99977272727273" height="37.142857142857146" as="geometry" />
        </mxCell>
        <mxCell id="VkaKx_zABPlLzsSXGRaH-6" style="edgeStyle=orthogonalEdgeStyle;rounded=0;orthogonalLoop=1;jettySize=auto;html=1;exitX=0.5;exitY=1;exitDx=0;exitDy=0;entryX=0.5;entryY=0;entryDx=0;entryDy=0;fillColor=#fff2cc;strokeColor=#d6b656;" edge="1" parent="VkaKx_zABPlLzsSXGRaH-20" source="VkaKx_zABPlLzsSXGRaH-2" target="VkaKx_zABPlLzsSXGRaH-3">
          <mxGeometry relative="1" as="geometry">
            <Array as="points">
              <mxPoint x="204" y="64" />
              <mxPoint x="42" y="64" />
            </Array>
          </mxGeometry>
        </mxCell>
        <mxCell id="VkaKx_zABPlLzsSXGRaH-4" value="原型" style="rounded=1;whiteSpace=wrap;html=1;fillColor=#fff2cc;strokeColor=#d6b656;" vertex="1" parent="VkaKx_zABPlLzsSXGRaH-20">
          <mxGeometry x="171.78511363636363" y="83.57142857142857" width="64.99977272727273" height="37.142857142857146" as="geometry" />
        </mxCell>
        <mxCell id="VkaKx_zABPlLzsSXGRaH-8" style="edgeStyle=orthogonalEdgeStyle;rounded=0;orthogonalLoop=1;jettySize=auto;html=1;exitX=0.5;exitY=1;exitDx=0;exitDy=0;entryX=0.5;entryY=0;entryDx=0;entryDy=0;fillColor=#fff2cc;strokeColor=#d6b656;" edge="1" parent="VkaKx_zABPlLzsSXGRaH-20" source="VkaKx_zABPlLzsSXGRaH-2" target="VkaKx_zABPlLzsSXGRaH-4">
          <mxGeometry relative="1" as="geometry" />
        </mxCell>
        <mxCell id="VkaKx_zABPlLzsSXGRaH-5" value="返回值" style="rounded=1;whiteSpace=wrap;html=1;fillColor=#fff2cc;strokeColor=#d6b656;" vertex="1" parent="VkaKx_zABPlLzsSXGRaH-20">
          <mxGeometry x="334.2845454545454" y="83.57142857142857" width="64.99977272727273" height="37.142857142857146" as="geometry" />
        </mxCell>
        <mxCell id="VkaKx_zABPlLzsSXGRaH-7" style="edgeStyle=orthogonalEdgeStyle;rounded=0;orthogonalLoop=1;jettySize=auto;html=1;exitX=0.5;exitY=1;exitDx=0;exitDy=0;entryX=0.5;entryY=0;entryDx=0;entryDy=0;fillColor=#fff2cc;strokeColor=#d6b656;" edge="1" parent="VkaKx_zABPlLzsSXGRaH-20" source="VkaKx_zABPlLzsSXGRaH-2" target="VkaKx_zABPlLzsSXGRaH-5">
          <mxGeometry relative="1" as="geometry">
            <Array as="points">
              <mxPoint x="204" y="64" />
              <mxPoint x="367" y="64" />
            </Array>
          </mxGeometry>
        </mxCell>
        <mxCell id="VkaKx_zABPlLzsSXGRaH-9" value="int printf(const char *format, ...)" style="rounded=1;whiteSpace=wrap;html=1;fillColor=#fff2cc;strokeColor=#d6b656;fontSize=13;" vertex="1" parent="VkaKx_zABPlLzsSXGRaH-20">
          <mxGeometry x="112.58889204545454" y="148.57142857142858" width="183.3922159090909" height="37.142857142857146" as="geometry" />
        </mxCell>
        <mxCell id="VkaKx_zABPlLzsSXGRaH-10" style="edgeStyle=orthogonalEdgeStyle;rounded=0;orthogonalLoop=1;jettySize=auto;html=1;exitX=0.5;exitY=1;exitDx=0;exitDy=0;entryX=0.5;entryY=0;entryDx=0;entryDy=0;fillColor=#fff2cc;strokeColor=#d6b656;" edge="1" parent="VkaKx_zABPlLzsSXGRaH-20" source="VkaKx_zABPlLzsSXGRaH-4" target="VkaKx_zABPlLzsSXGRaH-9">
          <mxGeometry relative="1" as="geometry" />
        </mxCell>
        <mxCell id="VkaKx_zABPlLzsSXGRaH-11" value="format&lt;br&gt;格式控制符" style="rounded=1;whiteSpace=wrap;html=1;fillColor=#fff2cc;strokeColor=#d6b656;" vertex="1" parent="VkaKx_zABPlLzsSXGRaH-20">
          <mxGeometry x="112.58889204545454" y="222.85714285714286" width="74.28545454545454" height="37.142857142857146" as="geometry" />
        </mxCell>
        <mxCell id="VkaKx_zABPlLzsSXGRaH-14" style="edgeStyle=orthogonalEdgeStyle;rounded=0;orthogonalLoop=1;jettySize=auto;html=1;exitX=0.5;exitY=1;exitDx=0;exitDy=0;entryX=0.5;entryY=0;entryDx=0;entryDy=0;fillColor=#fff2cc;strokeColor=#d6b656;" edge="1" parent="VkaKx_zABPlLzsSXGRaH-20" source="VkaKx_zABPlLzsSXGRaH-9" target="VkaKx_zABPlLzsSXGRaH-11">
          <mxGeometry relative="1" as="geometry" />
        </mxCell>
        <mxCell id="VkaKx_zABPlLzsSXGRaH-12" value="...&lt;br&gt;可变参数" style="rounded=1;whiteSpace=wrap;html=1;fillColor=#fff2cc;strokeColor=#d6b656;" vertex="1" parent="VkaKx_zABPlLzsSXGRaH-20">
          <mxGeometry x="221.6956534090909" y="222.85714285714286" width="74.28545454545454" height="37.142857142857146" as="geometry" />
        </mxCell>
        <mxCell id="VkaKx_zABPlLzsSXGRaH-15" style="edgeStyle=orthogonalEdgeStyle;rounded=0;orthogonalLoop=1;jettySize=auto;html=1;exitX=0.5;exitY=1;exitDx=0;exitDy=0;entryX=0.5;entryY=0;entryDx=0;entryDy=0;fillColor=#fff2cc;strokeColor=#d6b656;" edge="1" parent="VkaKx_zABPlLzsSXGRaH-20" source="VkaKx_zABPlLzsSXGRaH-9" target="VkaKx_zABPlLzsSXGRaH-12">
          <mxGeometry relative="1" as="geometry" />
        </mxCell>
        <mxCell id="VkaKx_zABPlLzsSXGRaH-16" value="输出字符数量" style="rounded=1;whiteSpace=wrap;html=1;fillColor=#fff2cc;strokeColor=#d6b656;" vertex="1" parent="VkaKx_zABPlLzsSXGRaH-20">
          <mxGeometry x="324.99886363636364" y="148.57142857142858" width="83.57113636363636" height="37.142857142857146" as="geometry" />
        </mxCell>
        <mxCell id="VkaKx_zABPlLzsSXGRaH-17" style="edgeStyle=orthogonalEdgeStyle;rounded=0;orthogonalLoop=1;jettySize=auto;html=1;exitX=0.5;exitY=1;exitDx=0;exitDy=0;entryX=0.5;entryY=0;entryDx=0;entryDy=0;fillColor=#fff2cc;strokeColor=#d6b656;" edge="1" parent="VkaKx_zABPlLzsSXGRaH-20" source="VkaKx_zABPlLzsSXGRaH-5" target="VkaKx_zABPlLzsSXGRaH-16">
          <mxGeometry relative="1" as="geometry" />
        </mxCell>
        <mxCell id="VkaKx_zABPlLzsSXGRaH-18" value="&amp;lt;stdio.h&amp;gt;" style="rounded=1;whiteSpace=wrap;html=1;fillColor=#fff2cc;strokeColor=#d6b656;fontSize=14;" vertex="1" parent="VkaKx_zABPlLzsSXGRaH-20">
          <mxGeometry y="148.57142857142858" width="83.57113636363636" height="37.142857142857146" as="geometry" />
        </mxCell>
        <mxCell id="VkaKx_zABPlLzsSXGRaH-19" style="edgeStyle=orthogonalEdgeStyle;rounded=0;orthogonalLoop=1;jettySize=auto;html=1;exitX=0.5;exitY=1;exitDx=0;exitDy=0;entryX=0.5;entryY=0;entryDx=0;entryDy=0;fillColor=#fff2cc;strokeColor=#d6b656;" edge="1" parent="VkaKx_zABPlLzsSXGRaH-20" source="VkaKx_zABPlLzsSXGRaH-3" target="VkaKx_zABPlLzsSXGRaH-18">
          <mxGeometry relative="1" as="geometry" />
        </mxCell>
        <mxCell id="VkaKx_zABPlLzsSXGRaH-49" value="" style="group" vertex="1" connectable="0" parent="1">
          <mxGeometry x="88.99" y="470" width="648.5799999999999" height="380" as="geometry" />
        </mxCell>
        <mxCell id="VkaKx_zABPlLzsSXGRaH-42" style="edgeStyle=orthogonalEdgeStyle;rounded=0;orthogonalLoop=1;jettySize=auto;html=1;exitX=0.5;exitY=1;exitDx=0;exitDy=0;fillColor=#fff2cc;strokeColor=#d6b656;" edge="1" parent="VkaKx_zABPlLzsSXGRaH-49" source="VkaKx_zABPlLzsSXGRaH-23">
          <mxGeometry relative="1" as="geometry">
            <mxPoint x="324.29" y="80" as="targetPoint" />
          </mxGeometry>
        </mxCell>
        <mxCell id="VkaKx_zABPlLzsSXGRaH-23" value="sprintf()" style="rounded=1;whiteSpace=wrap;html=1;fillColor=#a20025;strokeColor=#6F0000;fontStyle=1;fontSize=16;fontColor=#ffffff;" vertex="1" parent="VkaKx_zABPlLzsSXGRaH-49">
          <mxGeometry x="278.1365909090909" width="92.85681818181818" height="46.42857142857143" as="geometry" />
        </mxCell>
        <mxCell id="VkaKx_zABPlLzsSXGRaH-24" value="原型" style="rounded=1;whiteSpace=wrap;html=1;fillColor=#fff2cc;strokeColor=#d6b656;" vertex="1" parent="VkaKx_zABPlLzsSXGRaH-49">
          <mxGeometry x="292.07511363636365" y="80.0014285714285" width="64.99977272727273" height="37.142857142857146" as="geometry" />
        </mxCell>
        <mxCell id="VkaKx_zABPlLzsSXGRaH-25" value="头文件" style="rounded=1;whiteSpace=wrap;html=1;fillColor=#fff2cc;strokeColor=#d6b656;" vertex="1" parent="VkaKx_zABPlLzsSXGRaH-49">
          <mxGeometry x="9.285113636363619" y="80.0014285714285" width="64.99977272727273" height="37.142857142857146" as="geometry" />
        </mxCell>
        <mxCell id="VkaKx_zABPlLzsSXGRaH-48" style="edgeStyle=orthogonalEdgeStyle;rounded=0;orthogonalLoop=1;jettySize=auto;html=1;exitX=0.5;exitY=1;exitDx=0;exitDy=0;entryX=0.5;entryY=0;entryDx=0;entryDy=0;fillColor=#fff2cc;strokeColor=#d6b656;" edge="1" parent="VkaKx_zABPlLzsSXGRaH-49" source="VkaKx_zABPlLzsSXGRaH-23" target="VkaKx_zABPlLzsSXGRaH-25">
          <mxGeometry relative="1" as="geometry">
            <Array as="points">
              <mxPoint x="324.29" y="60" />
              <mxPoint x="42.290000000000006" y="60" />
            </Array>
          </mxGeometry>
        </mxCell>
        <mxCell id="VkaKx_zABPlLzsSXGRaH-28" value="返回值" style="rounded=1;whiteSpace=wrap;html=1;fillColor=#fff2cc;strokeColor=#d6b656;" vertex="1" parent="VkaKx_zABPlLzsSXGRaH-49">
          <mxGeometry x="566.4351136363636" y="80.0014285714285" width="64.99977272727273" height="37.142857142857146" as="geometry" />
        </mxCell>
        <mxCell id="VkaKx_zABPlLzsSXGRaH-47" style="edgeStyle=orthogonalEdgeStyle;rounded=0;orthogonalLoop=1;jettySize=auto;html=1;exitX=0.5;exitY=1;exitDx=0;exitDy=0;entryX=0.5;entryY=0;entryDx=0;entryDy=0;fillColor=#fff2cc;strokeColor=#d6b656;" edge="1" parent="VkaKx_zABPlLzsSXGRaH-49" source="VkaKx_zABPlLzsSXGRaH-23" target="VkaKx_zABPlLzsSXGRaH-28">
          <mxGeometry relative="1" as="geometry">
            <Array as="points">
              <mxPoint x="324.29" y="60" />
              <mxPoint x="599.29" y="60" />
            </Array>
          </mxGeometry>
        </mxCell>
        <mxCell id="VkaKx_zABPlLzsSXGRaH-29" value="输出字符数量" style="rounded=1;whiteSpace=wrap;html=1;fillColor=#fff2cc;strokeColor=#d6b656;" vertex="1" parent="VkaKx_zABPlLzsSXGRaH-49">
          <mxGeometry x="557.1488636363637" y="150.0014285714285" width="83.57113636363636" height="37.142857142857146" as="geometry" />
        </mxCell>
        <mxCell id="VkaKx_zABPlLzsSXGRaH-45" style="edgeStyle=orthogonalEdgeStyle;rounded=0;orthogonalLoop=1;jettySize=auto;html=1;exitX=0.5;exitY=1;exitDx=0;exitDy=0;entryX=0.5;entryY=0;entryDx=0;entryDy=0;fillColor=#fff2cc;strokeColor=#d6b656;" edge="1" parent="VkaKx_zABPlLzsSXGRaH-49" source="VkaKx_zABPlLzsSXGRaH-28" target="VkaKx_zABPlLzsSXGRaH-29">
          <mxGeometry relative="1" as="geometry" />
        </mxCell>
        <mxCell id="VkaKx_zABPlLzsSXGRaH-30" value="不输出到屏幕上" style="rounded=1;whiteSpace=wrap;html=1;fillColor=#d80073;strokeColor=#A50040;fontColor=#ffffff;" vertex="1" parent="VkaKx_zABPlLzsSXGRaH-49">
          <mxGeometry x="549.29" y="247.14" width="99.29" height="37.14" as="geometry" />
        </mxCell>
        <mxCell id="VkaKx_zABPlLzsSXGRaH-46" style="edgeStyle=orthogonalEdgeStyle;rounded=0;orthogonalLoop=1;jettySize=auto;html=1;exitX=0.5;exitY=1;exitDx=0;exitDy=0;entryX=0.5;entryY=0;entryDx=0;entryDy=0;fillColor=#d80073;strokeColor=#A50040;" edge="1" parent="VkaKx_zABPlLzsSXGRaH-49" source="VkaKx_zABPlLzsSXGRaH-29" target="VkaKx_zABPlLzsSXGRaH-30">
          <mxGeometry relative="1" as="geometry" />
        </mxCell>
        <mxCell id="VkaKx_zABPlLzsSXGRaH-31" value="int sprintf(char *buffer, const char * format, ...)" style="rounded=1;whiteSpace=wrap;html=1;fillColor=#fff2cc;strokeColor=#d6b656;fontSize=13;" vertex="1" parent="VkaKx_zABPlLzsSXGRaH-49">
          <mxGeometry x="174.57" y="150" width="300" height="37.14" as="geometry" />
        </mxCell>
        <mxCell id="VkaKx_zABPlLzsSXGRaH-36" style="edgeStyle=orthogonalEdgeStyle;rounded=0;orthogonalLoop=1;jettySize=auto;html=1;exitX=0.5;exitY=1;exitDx=0;exitDy=0;entryX=0.5;entryY=0;entryDx=0;entryDy=0;fillColor=#fff2cc;strokeColor=#d6b656;" edge="1" parent="VkaKx_zABPlLzsSXGRaH-49" source="VkaKx_zABPlLzsSXGRaH-24" target="VkaKx_zABPlLzsSXGRaH-31">
          <mxGeometry relative="1" as="geometry" />
        </mxCell>
        <mxCell id="VkaKx_zABPlLzsSXGRaH-32" value="format&lt;br&gt;格式控制符" style="rounded=1;whiteSpace=wrap;html=1;fillColor=#fff2cc;strokeColor=#d6b656;" vertex="1" parent="VkaKx_zABPlLzsSXGRaH-49">
          <mxGeometry x="339.2888920454546" y="247.13714285714286" width="74.28545454545454" height="37.142857142857146" as="geometry" />
        </mxCell>
        <mxCell id="VkaKx_zABPlLzsSXGRaH-38" style="edgeStyle=orthogonalEdgeStyle;rounded=0;orthogonalLoop=1;jettySize=auto;html=1;exitX=0.5;exitY=1;exitDx=0;exitDy=0;entryX=0.5;entryY=0;entryDx=0;entryDy=0;fillColor=#fff2cc;strokeColor=#d6b656;" edge="1" parent="VkaKx_zABPlLzsSXGRaH-49" source="VkaKx_zABPlLzsSXGRaH-31" target="VkaKx_zABPlLzsSXGRaH-32">
          <mxGeometry relative="1" as="geometry" />
        </mxCell>
        <mxCell id="VkaKx_zABPlLzsSXGRaH-34" value="...&lt;br&gt;可变参数" style="rounded=1;whiteSpace=wrap;html=1;fillColor=#fff2cc;strokeColor=#d6b656;" vertex="1" parent="VkaKx_zABPlLzsSXGRaH-49">
          <mxGeometry x="454.5756534090909" y="247.13714285714286" width="74.28545454545454" height="37.142857142857146" as="geometry" />
        </mxCell>
        <mxCell id="VkaKx_zABPlLzsSXGRaH-39" style="edgeStyle=orthogonalEdgeStyle;rounded=0;orthogonalLoop=1;jettySize=auto;html=1;exitX=0.5;exitY=1;exitDx=0;exitDy=0;entryX=0.5;entryY=0;entryDx=0;entryDy=0;fillColor=#fff2cc;strokeColor=#d6b656;" edge="1" parent="VkaKx_zABPlLzsSXGRaH-49" source="VkaKx_zABPlLzsSXGRaH-31" target="VkaKx_zABPlLzsSXGRaH-34">
          <mxGeometry relative="1" as="geometry" />
        </mxCell>
        <mxCell id="VkaKx_zABPlLzsSXGRaH-35" value="*buffer&lt;br&gt;接收字符串结果的数组变量" style="rounded=1;whiteSpace=wrap;html=1;fillColor=#fff2cc;strokeColor=#d6b656;" vertex="1" parent="VkaKx_zABPlLzsSXGRaH-49">
          <mxGeometry x="148.29000000000002" y="247.14" width="164.28" height="37.14" as="geometry" />
        </mxCell>
        <mxCell id="VkaKx_zABPlLzsSXGRaH-37" style="edgeStyle=orthogonalEdgeStyle;rounded=0;orthogonalLoop=1;jettySize=auto;html=1;exitX=0.5;exitY=1;exitDx=0;exitDy=0;entryX=0.5;entryY=0;entryDx=0;entryDy=0;fillColor=#fff2cc;strokeColor=#d6b656;" edge="1" parent="VkaKx_zABPlLzsSXGRaH-49" source="VkaKx_zABPlLzsSXGRaH-31" target="VkaKx_zABPlLzsSXGRaH-35">
          <mxGeometry relative="1" as="geometry" />
        </mxCell>
        <mxCell id="VkaKx_zABPlLzsSXGRaH-40" value="本质：将其他数据类型转换为字符串数据类型" style="rounded=1;whiteSpace=wrap;html=1;fillColor=#d80073;strokeColor=#A50040;fontColor=#ffffff;fontSize=13;" vertex="1" parent="VkaKx_zABPlLzsSXGRaH-49">
          <mxGeometry x="187.21999999999997" y="330" width="274.72" height="50" as="geometry" />
        </mxCell>
        <mxCell id="VkaKx_zABPlLzsSXGRaH-41" style="edgeStyle=orthogonalEdgeStyle;rounded=0;orthogonalLoop=1;jettySize=auto;html=1;exitX=0.5;exitY=1;exitDx=0;exitDy=0;entryX=0.5;entryY=0;entryDx=0;entryDy=0;fillColor=#d80073;strokeColor=#A50040;" edge="1" parent="VkaKx_zABPlLzsSXGRaH-49" source="VkaKx_zABPlLzsSXGRaH-35" target="VkaKx_zABPlLzsSXGRaH-40">
          <mxGeometry relative="1" as="geometry" />
        </mxCell>
        <mxCell id="VkaKx_zABPlLzsSXGRaH-43" value="&amp;lt;stdio.h&amp;gt;" style="rounded=1;whiteSpace=wrap;html=1;fillColor=#fff2cc;strokeColor=#d6b656;fontSize=14;" vertex="1" parent="VkaKx_zABPlLzsSXGRaH-49">
          <mxGeometry y="150.0014285714285" width="83.57113636363636" height="37.142857142857146" as="geometry" />
        </mxCell>
        <mxCell id="VkaKx_zABPlLzsSXGRaH-44" style="edgeStyle=orthogonalEdgeStyle;rounded=0;orthogonalLoop=1;jettySize=auto;html=1;exitX=0.5;exitY=1;exitDx=0;exitDy=0;entryX=0.5;entryY=0;entryDx=0;entryDy=0;fillColor=#fff2cc;strokeColor=#d6b656;" edge="1" parent="VkaKx_zABPlLzsSXGRaH-49" source="VkaKx_zABPlLzsSXGRaH-25" target="VkaKx_zABPlLzsSXGRaH-43">
          <mxGeometry relative="1" as="geometry" />
        </mxCell>
        <mxCell id="VkaKx_zABPlLzsSXGRaH-68" value="z" style="group" vertex="1" connectable="0" parent="1">
          <mxGeometry x="134" y="930" width="560" height="277.1400000000001" as="geometry" />
        </mxCell>
        <mxCell id="VkaKx_zABPlLzsSXGRaH-51" value="scan()" style="rounded=1;whiteSpace=wrap;html=1;fillColor=#008a00;strokeColor=#005700;fontStyle=1;fontSize=16;fontColor=#ffffff;" vertex="1" parent="VkaKx_zABPlLzsSXGRaH-68">
          <mxGeometry x="216.84659090909093" width="92.85681818181818" height="46.42857142857143" as="geometry" />
        </mxCell>
        <mxCell id="VkaKx_zABPlLzsSXGRaH-52" value="原型" style="rounded=1;whiteSpace=wrap;html=1;fillColor=#d5e8d4;strokeColor=#82b366;" vertex="1" parent="VkaKx_zABPlLzsSXGRaH-68">
          <mxGeometry x="231.06511363636366" y="90.0014285714285" width="64.99977272727273" height="37.142857142857146" as="geometry" />
        </mxCell>
        <mxCell id="VkaKx_zABPlLzsSXGRaH-54" style="edgeStyle=orthogonalEdgeStyle;rounded=0;orthogonalLoop=1;jettySize=auto;html=1;exitX=0.5;exitY=1;exitDx=0;exitDy=0;entryX=0.5;entryY=0;entryDx=0;entryDy=0;fillColor=#d5e8d4;strokeColor=#82b366;" edge="1" parent="VkaKx_zABPlLzsSXGRaH-68" source="VkaKx_zABPlLzsSXGRaH-51" target="VkaKx_zABPlLzsSXGRaH-52">
          <mxGeometry relative="1" as="geometry" />
        </mxCell>
        <mxCell id="VkaKx_zABPlLzsSXGRaH-53" value="int scanf(const char *format, ...)" style="rounded=1;whiteSpace=wrap;html=1;fillColor=#d5e8d4;strokeColor=#82b366;fontSize=13;" vertex="1" parent="VkaKx_zABPlLzsSXGRaH-68">
          <mxGeometry x="150.06" y="170" width="226.44" height="37.14" as="geometry" />
        </mxCell>
        <mxCell id="VkaKx_zABPlLzsSXGRaH-55" style="edgeStyle=orthogonalEdgeStyle;rounded=0;orthogonalLoop=1;jettySize=auto;html=1;exitX=0.5;exitY=1;exitDx=0;exitDy=0;entryX=0.5;entryY=0;entryDx=0;entryDy=0;fillColor=#d5e8d4;strokeColor=#82b366;" edge="1" parent="VkaKx_zABPlLzsSXGRaH-68" source="VkaKx_zABPlLzsSXGRaH-52" target="VkaKx_zABPlLzsSXGRaH-53">
          <mxGeometry relative="1" as="geometry" />
        </mxCell>
        <mxCell id="VkaKx_zABPlLzsSXGRaH-56" value="format&lt;br&gt;格式控制符" style="rounded=1;whiteSpace=wrap;html=1;fillColor=#d5e8d4;strokeColor=#82b366;" vertex="1" parent="VkaKx_zABPlLzsSXGRaH-68">
          <mxGeometry x="156.77889204545454" y="239.997142857143" width="74.28545454545454" height="37.142857142857146" as="geometry" />
        </mxCell>
        <mxCell id="VkaKx_zABPlLzsSXGRaH-58" style="edgeStyle=orthogonalEdgeStyle;rounded=0;orthogonalLoop=1;jettySize=auto;html=1;exitX=0.5;exitY=1;exitDx=0;exitDy=0;entryX=0.5;entryY=0;entryDx=0;entryDy=0;fillColor=#d5e8d4;strokeColor=#82b366;" edge="1" parent="VkaKx_zABPlLzsSXGRaH-68" source="VkaKx_zABPlLzsSXGRaH-53" target="VkaKx_zABPlLzsSXGRaH-56">
          <mxGeometry relative="1" as="geometry" />
        </mxCell>
        <mxCell id="VkaKx_zABPlLzsSXGRaH-57" value="...&lt;br&gt;可变参数" style="rounded=1;whiteSpace=wrap;html=1;fillColor=#d5e8d4;strokeColor=#82b366;" vertex="1" parent="VkaKx_zABPlLzsSXGRaH-68">
          <mxGeometry x="296.06565340909094" y="239.997142857143" width="74.28545454545454" height="37.142857142857146" as="geometry" />
        </mxCell>
        <mxCell id="VkaKx_zABPlLzsSXGRaH-59" style="edgeStyle=orthogonalEdgeStyle;rounded=0;orthogonalLoop=1;jettySize=auto;html=1;exitX=0.5;exitY=1;exitDx=0;exitDy=0;entryX=0.5;entryY=0;entryDx=0;entryDy=0;fillColor=#d5e8d4;strokeColor=#82b366;" edge="1" parent="VkaKx_zABPlLzsSXGRaH-68" source="VkaKx_zABPlLzsSXGRaH-53" target="VkaKx_zABPlLzsSXGRaH-57">
          <mxGeometry relative="1" as="geometry" />
        </mxCell>
        <mxCell id="VkaKx_zABPlLzsSXGRaH-60" value="返回值" style="rounded=1;whiteSpace=wrap;html=1;fillColor=#d5e8d4;strokeColor=#82b366;" vertex="1" parent="VkaKx_zABPlLzsSXGRaH-68">
          <mxGeometry x="452.50454545454545" y="90.0014285714285" width="64.99977272727273" height="37.142857142857146" as="geometry" />
        </mxCell>
        <mxCell id="VkaKx_zABPlLzsSXGRaH-62" style="edgeStyle=orthogonalEdgeStyle;rounded=0;orthogonalLoop=1;jettySize=auto;html=1;exitX=0.5;exitY=1;exitDx=0;exitDy=0;entryX=0.5;entryY=0;entryDx=0;entryDy=0;fillColor=#d5e8d4;strokeColor=#82b366;" edge="1" parent="VkaKx_zABPlLzsSXGRaH-68" source="VkaKx_zABPlLzsSXGRaH-51" target="VkaKx_zABPlLzsSXGRaH-60">
          <mxGeometry relative="1" as="geometry" />
        </mxCell>
        <mxCell id="VkaKx_zABPlLzsSXGRaH-61" value="成功读取的参数个数" style="rounded=1;whiteSpace=wrap;html=1;fillColor=#d5e8d4;strokeColor=#82b366;" vertex="1" parent="VkaKx_zABPlLzsSXGRaH-68">
          <mxGeometry x="410" y="170" width="150" height="37.14" as="geometry" />
        </mxCell>
        <mxCell id="VkaKx_zABPlLzsSXGRaH-63" value="" style="edgeStyle=orthogonalEdgeStyle;rounded=0;orthogonalLoop=1;jettySize=auto;html=1;fillColor=#d5e8d4;strokeColor=#82b366;" edge="1" parent="VkaKx_zABPlLzsSXGRaH-68" source="VkaKx_zABPlLzsSXGRaH-60" target="VkaKx_zABPlLzsSXGRaH-61">
          <mxGeometry relative="1" as="geometry" />
        </mxCell>
        <mxCell id="VkaKx_zABPlLzsSXGRaH-64" value="头文件" style="rounded=1;whiteSpace=wrap;html=1;fillColor=#d5e8d4;strokeColor=#82b366;" vertex="1" parent="VkaKx_zABPlLzsSXGRaH-68">
          <mxGeometry x="9.285681818181814" y="90.0014285714285" width="64.99977272727273" height="37.142857142857146" as="geometry" />
        </mxCell>
        <mxCell id="VkaKx_zABPlLzsSXGRaH-66" style="edgeStyle=orthogonalEdgeStyle;rounded=0;orthogonalLoop=1;jettySize=auto;html=1;exitX=0.5;exitY=1;exitDx=0;exitDy=0;entryX=0.5;entryY=0;entryDx=0;entryDy=0;fillColor=#d5e8d4;strokeColor=#82b366;" edge="1" parent="VkaKx_zABPlLzsSXGRaH-68" source="VkaKx_zABPlLzsSXGRaH-51" target="VkaKx_zABPlLzsSXGRaH-64">
          <mxGeometry relative="1" as="geometry" />
        </mxCell>
        <mxCell id="VkaKx_zABPlLzsSXGRaH-65" value="&amp;lt;stdio.h&amp;gt;" style="rounded=1;whiteSpace=wrap;html=1;fillColor=#d5e8d4;strokeColor=#82b366;fontSize=14;" vertex="1" parent="VkaKx_zABPlLzsSXGRaH-68">
          <mxGeometry y="170.0014285714285" width="83.57113636363636" height="37.142857142857146" as="geometry" />
        </mxCell>
        <mxCell id="VkaKx_zABPlLzsSXGRaH-67" style="edgeStyle=orthogonalEdgeStyle;rounded=0;orthogonalLoop=1;jettySize=auto;html=1;exitX=0.5;exitY=1;exitDx=0;exitDy=0;entryX=0.5;entryY=0;entryDx=0;entryDy=0;" edge="1" parent="VkaKx_zABPlLzsSXGRaH-68" source="VkaKx_zABPlLzsSXGRaH-64" target="VkaKx_zABPlLzsSXGRaH-65">
          <mxGeometry relative="1" as="geometry" />
        </mxCell>
        <mxCell id="VkaKx_zABPlLzsSXGRaH-83" style="edgeStyle=orthogonalEdgeStyle;rounded=0;orthogonalLoop=1;jettySize=auto;html=1;exitX=0.5;exitY=1;exitDx=0;exitDy=0;entryX=0.5;entryY=0;entryDx=0;entryDy=0;" edge="1" parent="1" source="VkaKx_zABPlLzsSXGRaH-69" target="VkaKx_zABPlLzsSXGRaH-70">
          <mxGeometry relative="1" as="geometry" />
        </mxCell>
        <mxCell id="VkaKx_zABPlLzsSXGRaH-92" style="edgeStyle=orthogonalEdgeStyle;rounded=0;orthogonalLoop=1;jettySize=auto;html=1;exitX=0.5;exitY=1;exitDx=0;exitDy=0;entryX=0.5;entryY=0;entryDx=0;entryDy=0;" edge="1" parent="1" source="VkaKx_zABPlLzsSXGRaH-69" target="VkaKx_zABPlLzsSXGRaH-89">
          <mxGeometry relative="1" as="geometry">
            <Array as="points">
              <mxPoint x="397" y="1340" />
              <mxPoint x="131" y="1340" />
            </Array>
          </mxGeometry>
        </mxCell>
        <mxCell id="VkaKx_zABPlLzsSXGRaH-93" style="edgeStyle=orthogonalEdgeStyle;rounded=0;orthogonalLoop=1;jettySize=auto;html=1;exitX=0.5;exitY=1;exitDx=0;exitDy=0;entryX=0.5;entryY=0;entryDx=0;entryDy=0;" edge="1" parent="1" source="VkaKx_zABPlLzsSXGRaH-69" target="VkaKx_zABPlLzsSXGRaH-90">
          <mxGeometry relative="1" as="geometry">
            <Array as="points">
              <mxPoint x="397" y="1340" />
              <mxPoint x="675" y="1340" />
            </Array>
          </mxGeometry>
        </mxCell>
        <mxCell id="VkaKx_zABPlLzsSXGRaH-69" value="sscan()" style="rounded=1;whiteSpace=wrap;html=1;fillColor=#008a00;strokeColor=#005700;fontStyle=1;fontSize=16;fontColor=#ffffff;" vertex="1" parent="1">
          <mxGeometry x="350.84659090909093" y="1280" width="92.85681818181818" height="46.42857142857143" as="geometry" />
        </mxCell>
        <mxCell id="VkaKx_zABPlLzsSXGRaH-82" style="edgeStyle=orthogonalEdgeStyle;rounded=0;orthogonalLoop=1;jettySize=auto;html=1;exitX=0.5;exitY=1;exitDx=0;exitDy=0;entryX=0.5;entryY=0;entryDx=0;entryDy=0;" edge="1" parent="1" source="VkaKx_zABPlLzsSXGRaH-70" target="VkaKx_zABPlLzsSXGRaH-71">
          <mxGeometry relative="1" as="geometry" />
        </mxCell>
        <mxCell id="VkaKx_zABPlLzsSXGRaH-70" value="原型" style="rounded=1;whiteSpace=wrap;html=1;fillColor=#d5e8d4;strokeColor=#82b366;" vertex="1" parent="1">
          <mxGeometry x="364.77511363636364" y="1360.0014285714285" width="64.99977272727273" height="37.142857142857146" as="geometry" />
        </mxCell>
        <mxCell id="VkaKx_zABPlLzsSXGRaH-76" style="edgeStyle=orthogonalEdgeStyle;rounded=0;orthogonalLoop=1;jettySize=auto;html=1;exitX=0.5;exitY=1;exitDx=0;exitDy=0;entryX=0.5;entryY=0;entryDx=0;entryDy=0;" edge="1" parent="1" source="VkaKx_zABPlLzsSXGRaH-71" target="VkaKx_zABPlLzsSXGRaH-72">
          <mxGeometry relative="1" as="geometry" />
        </mxCell>
        <mxCell id="VkaKx_zABPlLzsSXGRaH-80" style="edgeStyle=orthogonalEdgeStyle;rounded=0;orthogonalLoop=1;jettySize=auto;html=1;exitX=0.5;exitY=1;exitDx=0;exitDy=0;entryX=0.5;entryY=0;entryDx=0;entryDy=0;" edge="1" parent="1">
          <mxGeometry relative="1" as="geometry">
            <mxPoint x="397.2800000000001" y="1475.71" as="sourcePoint" />
            <mxPoint x="538.1083806818182" y="1531.427142857143" as="targetPoint" />
            <Array as="points">
              <mxPoint x="397" y="1503.57" />
              <mxPoint x="538" y="1503.57" />
            </Array>
          </mxGeometry>
        </mxCell>
        <mxCell id="VkaKx_zABPlLzsSXGRaH-81" style="edgeStyle=orthogonalEdgeStyle;rounded=0;orthogonalLoop=1;jettySize=auto;html=1;exitX=0.5;exitY=1;exitDx=0;exitDy=0;entryX=0.5;entryY=0;entryDx=0;entryDy=0;" edge="1" parent="1" source="VkaKx_zABPlLzsSXGRaH-71" target="VkaKx_zABPlLzsSXGRaH-74">
          <mxGeometry relative="1" as="geometry">
            <Array as="points">
              <mxPoint x="397" y="1504" />
              <mxPoint x="427" y="1504" />
            </Array>
          </mxGeometry>
        </mxCell>
        <mxCell id="VkaKx_zABPlLzsSXGRaH-71" value="int sscanf(const char* buffer, const char* format, ...)" style="rounded=1;whiteSpace=wrap;html=1;fillColor=#d5e8d4;strokeColor=#82b366;fontSize=13;" vertex="1" parent="1">
          <mxGeometry x="219.31" y="1440" width="355.94" height="37.14" as="geometry" />
        </mxCell>
        <mxCell id="VkaKx_zABPlLzsSXGRaH-97" style="edgeStyle=orthogonalEdgeStyle;rounded=0;orthogonalLoop=1;jettySize=auto;html=1;exitX=0.5;exitY=1;exitDx=0;exitDy=0;entryX=0.5;entryY=0;entryDx=0;entryDy=0;" edge="1" parent="1" source="VkaKx_zABPlLzsSXGRaH-72" target="VkaKx_zABPlLzsSXGRaH-96">
          <mxGeometry relative="1" as="geometry" />
        </mxCell>
        <mxCell id="VkaKx_zABPlLzsSXGRaH-72" value="从buffer读取数据" style="rounded=1;whiteSpace=wrap;html=1;fillColor=#d5e8d4;strokeColor=#82b366;" vertex="1" parent="1">
          <mxGeometry x="219.31" y="1530" width="125.22" height="40" as="geometry" />
        </mxCell>
        <mxCell id="VkaKx_zABPlLzsSXGRaH-74" value="format&lt;br&gt;格式控制符" style="rounded=1;whiteSpace=wrap;html=1;fillColor=#d5e8d4;strokeColor=#82b366;" vertex="1" parent="1">
          <mxGeometry x="389.99889204545457" y="1531.427142857143" width="74.28545454545454" height="37.142857142857146" as="geometry" />
        </mxCell>
        <mxCell id="VkaKx_zABPlLzsSXGRaH-75" value="...&lt;br&gt;可变参数" style="rounded=1;whiteSpace=wrap;html=1;fillColor=#d5e8d4;strokeColor=#82b366;" vertex="1" parent="1">
          <mxGeometry x="500.965653409091" y="1532.8571428571431" width="74.28545454545454" height="37.142857142857146" as="geometry" />
        </mxCell>
        <mxCell id="VkaKx_zABPlLzsSXGRaH-88" value="&amp;lt;stdio.h&amp;gt;" style="rounded=1;whiteSpace=wrap;html=1;fillColor=#d5e8d4;strokeColor=#82b366;fontSize=14;" vertex="1" parent="1">
          <mxGeometry x="88.99" y="1440.0014285714285" width="83.57113636363636" height="37.142857142857146" as="geometry" />
        </mxCell>
        <mxCell id="VkaKx_zABPlLzsSXGRaH-94" style="edgeStyle=orthogonalEdgeStyle;rounded=0;orthogonalLoop=1;jettySize=auto;html=1;exitX=0.5;exitY=1;exitDx=0;exitDy=0;entryX=0.5;entryY=0;entryDx=0;entryDy=0;" edge="1" parent="1" source="VkaKx_zABPlLzsSXGRaH-89" target="VkaKx_zABPlLzsSXGRaH-88">
          <mxGeometry relative="1" as="geometry" />
        </mxCell>
        <mxCell id="VkaKx_zABPlLzsSXGRaH-89" value="头文件" style="rounded=1;whiteSpace=wrap;html=1;fillColor=#d5e8d4;strokeColor=#82b366;" vertex="1" parent="1">
          <mxGeometry x="98.27568181818181" y="1360.0014285714285" width="64.99977272727273" height="37.142857142857146" as="geometry" />
        </mxCell>
        <mxCell id="VkaKx_zABPlLzsSXGRaH-95" style="edgeStyle=orthogonalEdgeStyle;rounded=0;orthogonalLoop=1;jettySize=auto;html=1;exitX=0.5;exitY=1;exitDx=0;exitDy=0;entryX=0.5;entryY=0;entryDx=0;entryDy=0;" edge="1" parent="1" source="VkaKx_zABPlLzsSXGRaH-90" target="VkaKx_zABPlLzsSXGRaH-91">
          <mxGeometry relative="1" as="geometry" />
        </mxCell>
        <mxCell id="VkaKx_zABPlLzsSXGRaH-90" value="返回值" style="rounded=1;whiteSpace=wrap;html=1;fillColor=#d5e8d4;strokeColor=#82b366;" vertex="1" parent="1">
          <mxGeometry x="642.5045454545455" y="1360.0014285714285" width="64.99977272727273" height="37.142857142857146" as="geometry" />
        </mxCell>
        <mxCell id="VkaKx_zABPlLzsSXGRaH-91" value="成功读取的参数个数" style="rounded=1;whiteSpace=wrap;html=1;fillColor=#d5e8d4;strokeColor=#82b366;" vertex="1" parent="1">
          <mxGeometry x="600" y="1440" width="150" height="37.14" as="geometry" />
        </mxCell>
        <mxCell id="VkaKx_zABPlLzsSXGRaH-96" value="本质：将字符串转换为字其他数据类型" style="rounded=1;whiteSpace=wrap;html=1;fillColor=#d80073;strokeColor=#A50040;fontColor=#ffffff;fontSize=13;" vertex="1" parent="1">
          <mxGeometry x="259.91999999999996" y="1620" width="274.72" height="50" as="geometry" />
        </mxCell>
        <mxCell id="VkaKx_zABPlLzsSXGRaH-98" value="" style="shape=image;verticalLabelPosition=bottom;labelBackgroundColor=default;verticalAlign=top;aspect=fixed;imageAspect=0;image=data:image/png,iVBORw0KGgoAAAANSUhEUgAAAqkAAAGYCAYAAABh6HtSAAAgAElEQVR4Aey9b1AU2ZrnfyM24s7uzP5+v9mYnd25M7ubgdL+qWpaFP80WqKNtoWISAu0TauACmJDi0jbNHqhVUCsRi/IlfYPykXGRr12dXDRVrRdCPuWTF/0WkGHBDd0fNP7rueV+8p55fcXJ/OcqsyszKosKKoKfF4QVVRlnnzOc76Z9cnnPM/JX0iSBPojH5AGSAOkAdIAaYA0QBogDcSTBn4RT8aQLXRykAZIA6QB0gBpgDRAGiANMA0QpFIkmSLppAHSAGmANEAaIA2QBuJOAwSpJMq4EyXdQdMdNGmANEAaIA2QBkgDBKkEqQSppAHSAGmANEAaIA2QBuJOAwSpJMq4EyXdPdPdM2mANEAaIA2QBkgDBKkEqQSppAHSAGmANEAaIA2QBuJOA1MEqR/gVM19DDfdQ2/GmrjrNN2dTeXdWRLOHP4U3rYquLMSaezpokcaIA2QBkgDpAHSwIQ0MDWQurgd95rvY5j9lX82IcMmC5IFH95Wji/saL6NLxdPJZxJOFTO+jz1x5msbya3vwPu9lp4GzOx3eikW5YJD/ue/VU7YjD23L6YHHtq9TW5cSPbyH+kAdIAaYA0ML00YAlSM3O/xnBTDw5xKMl7vz8EjMU+kkqQaibEZJypK8fIYRPINAJPzWchIFWKdSSVIJUuwmbap89JG6QB0gBpYDppwBKkFm27jeGD7SjgsFJedA/DzV+j6Y3pMdgKsE59hHPKIqkJdrTUlEdo+jwUZIYa08nuH6r9yX4fPqRuyd2KoYpUZCVM9ti0/3S6+JGtpFfSAGmANBDfGrAEqTJ8HTiOTA6p8v+qyGq8D/K0hlRbCnqOKtPnQyUpWKGJak5EXJOFzMnuPxGbw9knXEhNxOHKKjk9YeTgWuwiUI1BikY440vbxvv1luwjjZIGSAOR0kAQSP0Mvb58Tp5favi/KkKZ0aPLA72P3gyTwZK3Zfu+hYINPbh1lB+j6R5u7axGpgkszH9zL06V9+N+o2r7sjoUJJocR5IQClLNv+c+MMirfWtRHS59chv3m4QdrFCMvVf5QwBlwnrsy7+i6uN93Nvbjn1vzg8KBLaUdNxoYYBajYGCJNhEe5rXROzJz8VA86dKHmj7pxhpKkTPertq+yRcaOR5oiJf1ODVU5yks2cWtufkYqCpmrddC+9v+HH0OalZW/3b8LbdWeZjIiXMxSdbt2LohNbuC2vmquwOsr/GB+rt/JBqS1qKCzUKgHrbP4WnLgeHbOptxftEVJaUKfY35ZtsI7al10hdfKgd0hJpgDRAGiANBNNAjCH1Pu4d0hc4KdB378MPdMAkYf6SdtwSUKgDZqPtRcfNIVQRh/n3xpC6NqPHD6c6OwIh9QO07GfpERxm1a9N/ThlUsy1Lj0HQ2218LZ9jKtO8yr5TypUAKkBz6047AO5iUCqP8IoF0Fp2jYonAoHUhOScIFHh43aHio2A3IrJ7OI9JYp/tPbXb8Wm31+0ba3JbcQI2z7lh049bb2O6EleiW/kAZIA6QB0gBpIDoaCAKpwoC9uHT0PvwQ+Bl6GSgaRBc1g8ajqsEjqRzcas5g31tvQZLewqasK7jPQO6zk8hTw0TCXlw6wgG27CjK5e0lzH8jF+U5PbieHwi1wh5zCFX6aP69AaQmVMv+YMtrXc8pxCoewZ3/xho07WX2aSOpm1jRWfN93N973GezlJiN8nzez711WK7upyQhK7sAIwxQQ8JSKtxsO1cuDtlmcaifhXeWO9BzMEcFqWIs2auAuOCFUzZnvgJsrq1oWZ6IBdzGFW+m4wYDOX0kVd0HDqxmkdTtxeVK1PJoDj5ZOEuJnL6RiF35HBLbduBUktrmcN7z/jEb28rQ8+5c2fYFC9Jx4wSLJpfhTIp5e/6bgzL0pJvfHAht0au5L8k35BvSAGmANEAamIwGQkPqwpO41Xwf19fzqWn+/633cwMinRpDLELq/f3HUaSZ2legWF2oxdqdz9u7/3Ed1qqByMJ7cwhVxGP+fSCkCjvubd8V0P/Awqn1aDlwH8NHL+JTTR/ZcVPRVMVSBPyrJkjSLOwpVk07hwS1ZPQ0K9FWd47dB5KacQjwjzVIPVzNgO5j9Dj0J5iF/YNCagp6XMzmQrQYTL1X7v5YBtiBXAHd+uOH+p/b11aGM7poqBJ1LseFZcHbsL29FgM8zeJGrjptIvh+wf1O+5J/SAOkAdIAaYA0EI4GTCFVATeDKWr1dHWzOsKqc7xFSA2MtH6ALw/e16wmwDok7Ol9V3ecAAgL/N4cQpVtzb8PhNRgdgRCKo8663ymnfrvx6mFwmYVpLoKcCwkpEqwvZ3pn9Zuq8ZQbQ5aVinRQ2MhWIBMiacHtBUYRGMt7B8UUvn+9WuRZTR2fN/A/Fjho1CvvH2DdVKVCK4FSFXlAhOkhvI3fW98npFfyC+kAdIAaWCyGphmkHoPl9LDH3RzCFXaMv/eDFKN7TCE1KCAym4C1JCq2KOe7j/jsBBRTJiLPTmZcNd9DC+b/mdT3a4CHDaIVFqb7ueQeiIfnwSAZIQgtTbdeKWCGEMqTfeHf35N9iJE+5PPSQOkAdIAacBIA6aQKjaWF/JX5VmGXsifOzrCkdTl2Upu572iPZgfAE7BB9ccQpX9jKOj85GXzfNGVfm3ij/uoy87VTvdP/8z9Mo5s+qcVB4Vrj+D8jBt9sNS8MIpMU6+V1Y1v1tJGRipWKq1UbbBAmRKc3GqnsFuIVrmaH27Lmurkqs64ZzUpbjKckPbCnFM1zbrg5juN8tn9fXT1J8Tj6Sy9VKt5QJrfRLaJtqefEQaIA2QBkgDpIFwNRASUhWA+xotbyrOVf4PjP4FHDjCkCotOI4+ubL/Hvq2f4ai+azQSoKUmIaiDZMrnBLgeb/quLKUVWI29n34tVLAxSKhKkiVUs8oj3w9cgVNi3ixV3o7+nhRl75wqnS7snrB/Y+Po3xRGt4yhatA8YZcgmqZEzfqctGyyo53fA9WmIV3Vm1UHk1qMOUtSRwS26txIz8JKwJyZRU79pQouaEjNenYztp+Yy4+Kd6hAOokC6cO7eUrEhxWF06p2j+Rj0OGdvlXHDBf03QikKpKs6AlqAxubAK1GXC+h6Fr2pf8SRogDZAGSANWNBASUg+VsSlpf3GPMqXt/99/EB41DDK97V8hQIJkCrHGOamSNB9F8uNYjfNkNW1LfJo+iC2aXFgfAOvaru/HrXodpErZSjGUvu2mfvR+zIBUHUllcPcZelkb+u3F/2oANvqhD7aY/7JMBUYZNAb8VcO93jhVwGzZKk0e6MK1GBCpA+q2DxfgRpO+uj/0Eleatm0OuOXCJAO726rMn6yl6a9Zbmm4kGoFfOli4j/PyRfkC9IAaYA0QBqIjgZCQ2q5Up2+Twao+Tj8sfp/tZFTDansWPORufokrtfc4wvn38dw42307dQv5h8mpEoS1q45g746DpPsgQLyAwJ4n/QgmbgLp/beVmxo8i/Mb5pWkPgBDu/8GvfEAwsEoLJXfdtGoGr6WNRZ2J6ZiRuHq/y5qG3V8NTl4thiY0CVT6wEO459VAKPbyF9BRY1IClJWOBw4oZ4SMBvPsaN4qXIYmucsgcDaKb7w4RU1kdbCs5Ul2HkNxxU29hi+yHslqwAZbiQKoEei6o+j+k9/fiQBkgDpAHSQHxoICSk0kDFx0DRONA4kAZIA6QB0gBpgDTwOmmAINUockmfUV4iaYA0QBogDZAGSAOkgZhqgCCVBBhTAb5Od4TUV4qAkAZIA6QB0gBpwLoGCFIJUglSSQOkAdIAaYA0QBogDcSdBghSSZRxJ0q6y7R+l0m+Il+RBkgDpAHSwEzVAEEqQSpBKmmANEAaIA2QBkgDpIG40wBBKoky7kQ5U+8IqV8U7SANkAZIA6QB0oB1DRCkEqQSpJIGSAOkAdIAaYA0QBqIOw0QpJIo406UdJdp/S6TfEW+Ig2QBkgDpIGZqgGCVIJUglTSAGmANEAaIA2QBkgDcacBglQSZdyJcqbeEVK/KNpBGiANkAZIA6QB6xogSCVIJUglDZAGSAOkAdIAaYA0EHcaIEglUcadKOku0/pdJvmKfEUaIA2QBkgDM1UDBKkEqQSppAHSAGmANEAaIA2QBuJOAwSpJMq4E+VMvSOkflG0gzRAGiANkAZIA9Y1QJBKkEqQShogDZAGSAOkAdIAaSDuNECQSqKMO1HSXab1u0zyFfmKNEAaIA2QBmaqBghSCVIJUkkDpAHSAGmANEAaIA3EnQYIUkmUcSfKmXpHSP2iaAdpgDRAGiANkAasa4AglSCVIJU0QBogDZAGSAOkAdJA3GmAIJVEGXeipLtM63eZ5CvyFWmANEAaIA3MVA0QpBKkEqSSBkgDpAHSAGmANEAaiDsNEKSSKONOlDP1jpD6RdEO0gBpgDRAGiANWNcAQSpBKkEqaYA0QBogDZAGSAOkgbjTAEEqiTLuREl3mdbvMslX5CvSAGmANEAamKkaIEglSCVIJQ2QBkgDpAHSAGmANBB3GiBIJVHGnShn6h0h9YuiHaQB0gBpgDRAGrCuAYJUglSCVNIAaYA0QBogDZAGSANxpwGCVBJl3ImS7jKt32WSr8hXpAHSAGmANDBTNUCQSpBKkEoaIA2QBkgDpAHSAGkg7jRAkEqijDtRztQ7QuoXRTtIA6QB0gBpgDRgXQMEqQSpBKmkAdIAaYA0QBogDZAG4k4DBKkkyrgTJd1lWr/LJF+Rr0gDpAHSAGlgpmqAIJUglSCVNEAaIA2QBkgDpAHSQNxpgCCVRBl3opypd4TUL4p2kAZIA6QB0gBpwLoGCFIJUglSSQOkAdIAaYA0QBogDcSdBghSSZRxJ0q6y7R+l0m+Il+RBkgDpAHSwEzVAEEqQSpBKmmANEAaIA2QBkgDpIG40wBBKoky7kQ5U+8IqV8U7SANkAZIA6QB0oB1DRCkEqQSpJIGSAOkAdIAaYA0QBqIOw0QpJIo406UdJdp/S6TfEW+Ig2QBkgDpIGZqgGCVIJUglTSAGmANEAaIA2QBkgDcacBy5CasPEmNnWOI891AXMS6K5FvmtZXYg7T67j+dNz6C6bPWWD6yj9e/zbH/8OnU4Dv9v+CcN//M94fOB/TdnxWV8d2f+I4e/+Gv8+9gvgL7/AvzYb2EIn+JSOwUy9U6Z+0blEGiANkAZIA0YasAypSYfG8f5F9vcIS1PJmbIzXSfw/Pl1+W/08popARRH6X/Dv/34C8D7t7hmBKnOX2Hs0X8A/vI3GC6donGx/QpjzIa/+P8IUqfI1wT6U3IeGV386DPSMGmANEAaiG8NWIbUqYqkzsr+Bhkd41j1Xnw7ylDIUx1Jtf0THj/6BfCjCaAKoHH+A/6VQWSo7cT24b42/K0CqP/yd+jJm4bjFG5/aXsCRdIAaYA0QBogDcRcA5Yh1RDSIjCAc3Y/kiO00xJSI9D/YH7t7Psr4C9/hX9tDj2V7zj4X/DvLNJ56x9QEGG76rv+BvjLLzF2kAA12HjRd6QP0gBpgDRAGiANRE4DBKkRBrqIiXPL3+PfGHQO/ncUW7Lxf+HarV8Cf/lPeFwVOYGw/jR1/zXwl7/G8M7IthsxX1nyD9lO/iYNkAZIA6QB0sB00kAISC3G0pMiF5W/nuzBHEMo4NseaoS04DMs/fwRcjuVfXJP3cXiVcn+sPF7N3l+q65tOedVfHYTSYbHCSWwNeh9fB3P7+7E+sMNGH3KckZ7cMe1EPayA3jI//ec1eaQLtxRiN575zAuf8/2uYLxhyfQXbsEdp0dOy93+XJRlZzULvSWGNulbHsCx+1LcOhyG7eHFVv1YKgrCwt1bQvxdPZx4Kwwbldsp3mt+Dslmvrdf49oNJUgNYwxMBlPzTjRNv5rAfmCfEEaIA2QBkgDJhqIPKSeeYQNHQI0Va9nbiJpLv+xjwakPj4Hz7hS1CSD5A9tGFL/P96MQz6n7MQdXgAlCqH8rz34ulpbuR8+pF7B6OgVHdgqIHzH9aaBOHmhkvfvcNpnoxVQ+h8Y/hMrbvpbXLNZ2d7aNgSp1vxEIEp+Ig2QBkgDpAHSQOQ0EAJS1QfikdJQkVQWDe0cxTsf7kYCW6pq7sd4m0djV21Ut6e8j3xOKo+kMugcbcCBxU4lssr+Hz+B4xkLcfp7Bohd6C4U9uzEnccn0HssC+sdHEgXL8chtxIxHb9ZYACSyr4KsIaKpCqwPH6vAntY+/Y3UXmNR2NvFQa2vf3v8X/ZVH//rwK/CwGtp6/9R+Av/zFiU/6Zeb/CmAy+/x/+sEr4i17pIkQaIA2QBkgDpAHSwNRqIPKQ2vkIKzMzNHA1q2jItDhq6iD1CkSU8vhdBRI97Qtlu5T/zcHSJ7qSgxhlcHt3p6Y/vu8lCVYhdfRmAdarATO3Ch6ztnk1/f/t/h+mx1XboH5fefb/icw6ps28op/B8tjfYKw+dPGW2g56P7UnLvmX/EsaIA2QBkgDM10DkYdUo0grn943quCfOkg9geMcChUo1f+vhdT1eytw40GXKidVAVt52n/SkKo9liIqnmJg1DYHxIlAqsT3nfQ6phpI/U/419b/CYcasul92DcQM/1iQv2jH0zSAGmANEAaiKQGCFIlCSuPncA4i2qa/RmBJIc0a5HU6EFqQev/G5lIKu9fQel/w/+RF/Kn6f5InnjUFl3ISQOkAdIAaYA0EFwDBKnSmzxH9ToeuguwTeSkMkiL2HR/mJC6879OMif1ryP69CkqnAp+EtFFhvxDGiANkAZIA6SByGsg5pAq8lXzWq7CvlC1TNWEp5NF4ZR+el//vwDHNeh+yKKoVzDUvlxZEsr+JrZVV+DGDz1KdDXakVRpotX9/xNDf6TqfrpQRP5CQT4ln5IGSAOkAdJAtDUQHFJDLhWlXss0SPV/kJxUadGXWMfXU30/kuukPtdDqf5/Aami+MnqdH+w5aqUNu64/EI2TwcIkpMqSeiR10n9Jcbq/W2FFId4AEDfryKaP0qR1DDGYMI3V3SMkPom31IeNGmANEAaeK00EHtIlSTMevcC3nGN+hb/V2BVDcDh/ICHG0mVINmX4Oi1DtVC+1fw8N5BHN9RiBtsbVVNJDU6kCqJKf+JPHEqnAcAWDjhCVLD0R9tS7BJGiANkAZIA6SBSGggOKRaAJhIGEFtGIu5s++vgL/8Ev/HFXr5J8fB/yI/berf+38V0adNsbFRIPWXGDtobCeNH/mFNEAaIA2QBkgDpIFIa4AgNZ5BfNWv8K9yZf3fBC+Ecv6Dst2Pf4trU7HgPl+3Ff/yd+jJo5Mw0ichtUeaIg2QBkgDpAHSQKAGCFLjGVIlCY5SXunPANQZOICS8x/x+F/+A/CXECA7mX7aeCEXW9if/016HdbJ2EP7vlY5SXThNjjv6Rygc4A0QBp4DTRAkDoNBtlR+vf4tz/+V5xYbPBjZfsnDP/xP2M4wnmoejBwZP8jhr/7a/z7mAKqBKkGYzENtKQfV/qfxpE0QBogDZAG4lUDBKkEFnQ3ShogDZAGSAOkAdIAaSDuNECQSqKMO1HG6x0d2UXRBtIAaYA0QBogDURPAwSpBKkEqaQB0gBpgDRAGiANkAbiTgMEqSTKuBMl3aVG7y6VfE2+Jg2QBkgDpIF41YAppK5evRrJyZF4TCkNfrwOPtlF2iQNkAZIA6QB0gBpIF41QJBKkVSKpJIGSAOkAdIAaYA0QBqIOw0QpJIo406U8XpHR3ZRtIE0QBogDZAGSAPR0wBBKkEqQSppgDRAGiANkAZIA6SBuNMAQSqJMu5ESXep0btLJV+Tr0kDpAHSAGkgXjVAkEqQSpBKGiANkAZIA6QB0gBpIO40QJD62omyGF/tGsezKvXfI3z1ZpzfSb7ZA6/GZmb/TTS/duMX5+NE4xF3F/l4jZCQXXQukwZIA6E0MG0gdc7uR3j/4iMsTaVBDTWowb8nSA3un8jq63B1LbzttfDWpmOFJGF7cbnyf/tWHCagI6CLigYccDMNttdiIHcWJCkJFxq5LqsdNAZRGYPIXleieQ2jY9HYxVIDBKnxeIHKvYoDD1/i3K2rU/ADwiF1Vw92WOl7SiryTh7D1UfXcMt7AUeKzE/YxA15+HXfGfxB3vYabj3qRlfvDqy2Ge0zD+uaj6DL8xVueVnb1/CHoS/w66qFFvosQDv+I6mHK3UwkLVVgdSmjdhl4v8VbzvQU1OlbBcMIt6w49hHJfD8hh+jrRqemkx8kmTkbwlZa5y4cbiaQ3ItvM0luJpjxwITO8K9MFm2mx8vy5GOq3XlGBH2t9fCnRVouy1pKc5Ul2m287aU4cbWFKyLgO22OUk4XFIITxvzY+RuHnx2y+3WwvubjzHwURq2vxHYR62vE3HsgBinclxYpt/eD53yDRAHUPE+0IepcHMbxHfi5smzM8nC+aY/Pv2vHS/yB/mDNDBVGiBIjcCPXMQHp+QBTj5/hYt3YwipKenY9btWuAVwyiAZBFLzduPciAKbAjp9r0O1yNSA6mzk/a7bB6e+7eRjfIWOo6FAdfpAqi9yKmBTQGpjJrbrtMegzX30Uz9EMvgQ++m2leYsxdUmDqc6SPG2bMVhjb9n4ZOPPta2q9pnaNvkQCUsu1k/EuxoOcAhXGUHgywBUb5zauFaDAjI023Lth+pWAqb3jcW/7clJaOlshxeTfuRgdQV7+Zy6DUYo6OBY+/rryRhc0GJMlayXZGAVH/kVPjXB6nFkxt7td30nkCFNEAaiLQGCFIt/qBF2vFB24sDSHWcPsMhshtd5yvxxf1gkdSF2H9LAVR3Xzkyl8+GJM1G0o5yH7j+c3uqL2KT+HEd3AxIH53BsU9TMY+NQUoqCnsuKMccOYZCDWTpT/zpB6keAQNpORhhsHU0E1vU2ktIxdUTHGga83GsqFABFRNI3VOiQOfIgXTssrEpXAm2OXZ8srtM3m9kb6oG3tZlFWDoYA4Ovz1L+fyNub5tvSfy8YnalnDeh2k3s/OTCh4lbNyKC5nJWDdHP77+/3ftVPo5tHsptojtEmZhy7s5GGIQNwnbD+3ldrSVw52TiRsyBEcGUiWbA+6jO9CTmYQVCaw/s7BZ2Nxejavv+vuovhbY3s5U+lW/FmfkVJEgkGqiDXV7ynsBqf62KncrNwlD2+y+8zJwP2MbaTvyC2mANBAtDcQeUt8oxoL9Q9hwZhzvXxzH+53j2Ph5D+YvsGkunv6c1GTMyb+JzHPK9nnnhvFOwW7NtrLzErIx78NvsK51FHms3YvjyDvzCOv2f4E5+um21B5kXhxH5u5iSMyemmG816nsk9tyEwuWaG0Je3Ds9dhw+Rlc469wkUVIn79Cx8Nn2Lq3WGX3VdTx78Q2Rq91LvXJwfdhEVd7JZyXf8Kpp/wYoz9hT426fbGfxen+vEqcu1WLgg0MONNxJBikFtXiKoPO+/qIqYTE2mP4A/vuTiUcMvzMRtk3DGi/wrlGfcQ0Fb/+Tvmu9VNhr9Hr9IFUW7Yyve+D1GWZ8DAYMgCMQx+VwC2m30XE1WA7OaeQRVFP5OOQDEBqH83FmcO18LYVWMh5TUGPi4GxH17C1rYkwbrdEqSFTgxxSN8VYLu6H8p7Baaq0JOu+y6B2+7KQWU4UK3a1ubMxVClmH4XU+gRglTVcdQ+FXDo04N6u4QkXDhaCxEJV6KdRmPDbTXUhs5PvP1jB7TjLCL8IrKqtlG8z2sZgHdsDN6+BjjVdtJ71XXb2N/Ch/RK/iENTE4DsYVUeyNWdXA45SApgyp7f6hRcyFQIHUUmS4/dPq2vTiKleu1IKlsb9x23tE2zFJfaAWk7u/Bqt8a7NPxDewWflCNxViD4gd+ONWA5+MHWOazYxKQeu8BSn4wOsbPKP5ALxCLkOqzi+0fHFKTXL+VI6DqaKkSSd2N1iGRc/oFyuQ2N+HY8DXcYtFS9TFYJPW8P73g6vl0zfhrfRspSC1C9/AYxsaC/fWjQW1ntN4HhdSlStTVBNAUEDKCG70WBKRuxbEJ61vXZlC7JWTJU9nmkUTtOEuQlvHIYlsVBkoc2DVnFla8nYarcm5tNdxZiUF0orMt6NhFF1JvZAfaVrmbRY2r4V6vRMYjCakBfg3qC2ab+tzwoPP9QHvDb5PaIJ+RBkgD4WkghpCah0XNChC+13AVSct5lekb6ZiXfRVrK40glW//eRvmzLVBSnBgXjmr+h9HXo1u+51DWLe/DfOXCtixIWF5G9bIUDyERQtUjuKQKkNv5yOszN+NBPaj/cbHeLuFHZNBsGr7kBd41baFPL/0+0GkOHgf7QVIqb6N2nuDKkhV7WN5ul8Nti/RdPkSFiyW5Khq7t2XcsTW1Vmp+xGPPKSuO8+m6b+CiH7O27Ydx27pc05FPusOdKgjq7Yl2OQrzFJSBuQc1W926OxW+Ud63SF1Lk7VK6kB6mnwBbZkHC7eynMhQ0OqLS1HierWpMkrD0Tk4hkCUpVCskKcWsWKpj7254PyoqItBrC8wOHEgBzx5ekQLBLr2oELa+ZqUhomZ38UIJVFf5tZlLsQx0TqAr+WrFhfIKeBsEImG/8sJKTK6QncJyeqMFSdicOLFcCdnC+Uc63ot4MUSQ3nWk/bBrlmq6/f9D4S5+fr0kbsIFWA4ckezDH4YdIPgIiMbqpp1EZBF3yJdQaRV/3+4v+kQww6dUtZCVtOfYMkXZpB4s5hGYJXvTfBE2t1H46wafzxn7GnVg+MJm2GC6njP6Nkb6b2AnHsmQypJy9r4V0SgGe1ul++8AaPpCqQegFHqll1P88rZSD66AJam53Y28fgUwep3+yWq/v/mUVV2bbea3DfqkXhp3VK6kBUINXE//HwYxMC9mzv5iu5rWpQ0bwPAaksZ7LFP7Uszo9Jv4awWxTsiEr0gNf6tdis8z+rkr9wUFdoxSKrW5MjtjKBJE01pCbicDXLgTWI/oqxOJoJdQpEWJAqxr6tKoLR5Tg+P3QamSPlaW4AACAASURBVLRuqT3t7wf5g/wRJxqIHaS+d1OGv8ydH1oSgz8nVX/hbMQqI0hN+BBJu+8io2Pcl5PqTw8wgVRdikGkLnx21zN0iHzTpy/QdOsBcsoKzPsdLqRq0gb0/tH/P1WRVD9sMjjtOJ2HZbz4SclBvYBff8hs4ZFUDqYynH53BHu3zVP8IfJbr283948A7Zm8mH8I2GPaXJeuW1LqRBluFDtwRs4/LMOZFP3Y8/9tKehhuY9tZbjwtsk2E71AhbBbQOpIfS6OLU/0FRW9szwdNxg0t3+MHofKJgFw7Z/Cw/JHbXPxSfEOjPCK/KFif+RxcufrVEJqIip5QVugvXy5qbYSnFqo6rckwRxStduxoqx3FqfglFgxoTkHeyY6frRfkOuO3u/0/+TOOfIf+S+0BmIOqeuKsi1dFMKD1GIslafplfQAP5yK/6MLqbIQF9fD2flnHHmoTMPLuak/PMAKu8EgTTNIdbSrVgL43Xas08CRkxddfcHXBf0ArWKpqvvHsL98CRJVP4yJja1yVPXqWZGmYeCfiEGqOu/OLC81HnNSjXwiPuOFUyZV77akNLjZ1DkDVEfkpoZ9F1tLkGqcA7siV1nRwF/MMwvHapTpbPU0ODvWAsdGJVWhvQSnTNaF9dmk0pf5Z1MEqQlzcaySRYE/xVCxUeRXHFeVyiCiorpXw2Irdd8S0iK7QoG6bXpv6XfKXF/i/KRX8hFpIBwNxA5S37mKTSyXVF/EZHIxDAtSedvvd9zFopVa2Ak63T9FkdSAAVlcj61DZjmjEqRpBqlSGV9S6n5twOLqvuWmfNX9b2LvTRZ1Zeuhvqm78IulrPz5rQG+k/Xxuuekml/k1mVtldMARj5K0fmWgR0vQmrZgVORjqCK8zYEpCpLShlU67P1Qbcqy2f5IVUsnWQEoiIvtxpX9ZX/wpawXgUsRrC6/41kXDjM1r2txkCBWcRXHDcCkGpLxwADW5MbFONzyVxLtD35hjRAGoi1BmIHqQmfYSWv7N9Q04b5i3hRUYIDiet7TAqndBFQ+UfIYLp/401liv/kVcxjBVZsO/tuefp/g7y0lK4dkZM6FZB67AlO3nuAnPIyzBVRU1Y41f4Tzj1/hcCcUQlS7iBccnrAC1TU1WC26Y8tL5yK8XS/v/r/GtzXdxusk6oF0qSjXyjLUo38FkeM1kk1gF3tiRIpSI3jC1AI2NP4441EZC1filNsYXoGKQGL+UvIWp+vFFS5CnAsjMjjrm0KOHobc3Eo6Nq13Jeh7HbwYq2mAhwTa7aq1z3VFBXZcYalJTDI26lfJ3UjBuR1ZY0AVoJvvdG2clx1WlkBQMBiaEi10rYtKVV52ALLEc2eWIGX5el+5r9V6XDzhzt4dqf4iq80OjG9jhifB86mfrlwamykHw1O420m0z7tSz4lDZAGQmkgdpAqSZj13k1s4uuRBkzJ64AxrEjq3EasEuuu6pe2kv+PIqS6lAImzdJTIj/1+QuUlBiJ1HzZKsN1UqcCUkVuqCp3VBQ4ideOo37bE3fwtVINtv/DNzuwSPMDuRBl34ilqVS5rPK+F3BkB1ub1d924PuZCakiXzOgmEhM+6qfUiXWWxXfiVfDKKkAsCDROnXbPt9r9/NHOLVjE5bdkiggMrIlsKhIRIbNfBKY46nYprHJbD1RAdTCdwGvxsVnVtrWbBPQLuu7cdtqrSttGGxnNvbsCVwH12qKr9Tthfu+oc+fAuN114Q4J7WaCPdYtD35jzRAGjDSQEwhVTZo6RdwHHvkWzz//c5RZBy6EGQxf/1AGkRS2Y/sqja8o1pTNffUEBwffox5O4bMq/t1YGzksLA/s1diVccTND1W5aI+fQnXvUE4N/HosQ8KVH3LOI/iey/QIRbn52Abr5DK/DJv2258cadbiZIy4Bw5IxdQaQGV99G2BAWnv8A/i/xU71dw3zmCsvdDASrbnyCVrR8qPxSAAVBbNUYOF6InPwWb9Q+qkLWlhU1D4DOEVAm7tpUoy0QFiaSGBDJ92wlz8cnWrRg6wR8B2/YpRg7no2W5ccRz3XK2XFW5r1jKK2/PnlZlN63ul6Odv2G+CRJJnSCkWmk7pE8iCalt1fDUFeDMu3NN/RH2dYvpxtmKQbGG8I0GglSj6zR9RrogDUypBmIPqTTAUzrAgT9OHPDCWoJKBc9xMV4zE1IDxyre/E72vF5j5ETrd0o0lSKppP3XS/s03vEy3gSpcQFd0TwhCFLj5eQjO6KpezpWWHpLSUdpm/JY1LExL9y12if6hdXWa3eNJa2RPkgDkdIAQeprdwEVUchxPKsSf4/w1ZtxflK92QOvz15h9000v3bjF+fjROMR5ZmRyOuhqGtE86hgT1dpRAqxIvWjRe1EfszJp+TTeNUAQepr96NKkBqvJyPZRT8U8aABAalezwA6P80mQH3tfiPoPIyH85BsUHRIkEoXoGkf+aGTmX5USAOkAdIAaYA0MPM0QJBKkEqQShogDZAGSAOkAdIAaSDuNECQSqKMO1HS3fDMuxumMaUxJQ2QBkgDpIFwNUCQSpBKkEoaIA2QBkgDpAHSAGkg7jRAkEqijDtRhnunRdvT3TlpgDRAGiANkAZmngYIUglSCVJJA6QB0gBpgDRAGiANxJ0GCFJJlHEnSrobnnl3wzSmNKakAdIAaYA0EK4GCFIJUglSSQOkAdIAaYA0QBogDcSdBghSSZRxJ8pw77Roe7o7Jw2QBkgDpAHSwMzTQFxAasLGm9jUOY481wXMSZh5TqYTh8aUNEAaIA2QBkgDpAHSQHgaiAtITTo0jvcvsr9HWJoaXgde6wFv6pefsd3fRD6zooOGG2MYGxtB9w7ylxV/0TakE9IAaYA0QBqIpQbiAlKnLJK6oBErXaPIrWmcmVPaBKlhjStBKl1sY3mxpWOT/kgDpAHSQHgaiAtInbJBS+1BJovQHiJInTIfT6OcXoLU8C4OpBnyF2mANEAaIA3EUgMEqdMIsgKEQpFUiqROZ/2S7WHpN+D8J/+R/0gDpIEZroEYQmoxlp4Uuaj89WQP5pg4fM7uR3j/4k0kJWRj/u672HhO2Sfv3COs2fGxSqiNWCXnt+ra1n226r1J3B3ZslHR5sbgsFfOCR0bG8OYdwSDv3ehKGUS7Zr03fTHyQepNmR/2o2BEZZzOYaxH73w9LlQYIuiLbLtzI5ODHjUfvGgv6UIyeH2bZLbJxe64B4cgfdH7hPZL8FyUm3Yf2lE9p/nQilskzy+6ZhRu6pzNdr6pOORLkkDpAHSwHTSwDSD1FFsaB3lRVZqCB3Fqvcc/Mdv6iG1qEuBGRkIGfyo/75rhTNaIMIhdeS+R2sDt8frrokibNlQ2mVsR7SLlZxN/fCqx0Tz3qxwqgH9Yrsf+1EfrTGk4xC0kgZIA6QB0gBpwFADMYRU9d0Mj6qGjKQqYLqprg1z5togJTgwr5xFWMeRZ1QcNUU5qUUXBuH5fSv2b0vnEUIbHCWtGPAyYB1ER466b1P4nkMqg2TvYDdqPnDAJtng2NsNjwxcg2hdNYXHV51Utlo3B8MR9LftR54cUbbB8cF+tPYNoDNaFfW2erjlcfBioK0U6TyybVvhROudYJFUB2quUCR1Ot1hk63RObfJz+Rn0gBpIFYamHaQuqH6c8xSwZG04EusMyuOmiJINRusqBfmiEiquz4gerv/ijLl3n80GieXDUrfvRhodhreDZn5LNKf24RPLlcE2BH18VHrlN4HjEekx57ai8a5TscgnZEGSAPR08A0g1SjdVT59L5RBf9UQaqtAPVdA/A80k31y9FLs+nkKRhUDmRG66TamgfkFACj7yJ/ghWhe5j5oh8NMYYxkYphBOcEqVOgwRiPd+S1TD4in5IGSAOkgXjRAEFq2D+yRej0GMGp+Cw+INVxcjD6kOp1oyZsf0b2YqBAqhfu2sB2CVIDfRIvFyKyg8aGNEAaIA2QBvQaIEgNF6r29Sq5l94BtJaJnFRFWFGHINNIqgMuOf/Si9590RC9A63fMUgfQe8+W0yndbO/VOB88KQopOP9dzagX85VjeJNRLjaou1jqh39xZH+j8a1g45BOiMNkAbMNTCzIVXkq3YOI3V9XmR+AI8qjyIdG+5FxQoFyJLXlqKhawAj8nJHZhDkREOfkic60tcQkEM6IZFySB38sgBObottRQFqLvMq++FuFBmBDwM2lqrw4wj6myKTQ5rH4XDMO4jeo/6CJeYbl2nhlA2lF7it9ztRGoklsz7qxQhLu2A3EYXJkKRk5NV2Y1AGVAWkjR+LOgW2GPmePovMeUh+JD+SBkgDpIEZr4HYQep7Nw2WklIvK3UTSSoBKuukhpmTKuVhUbO6Tf/7Ca+TukpE5MT0vv7VDFJreNU52954OjpsUOWQqlkCSyyjNOZBd4lJVNNXic9gLkJT9LZSdN7X+0L8b+aTbHQMim3GMPhldgROuDxNmz7f/OhB/7eset/MlgJNGkdkbDG/Owx7rFXnAu1LfiUNkAZIA6SB10EDMxxSJUj2/Vh8aBib+OL/bLkq9jdhSJUkJH/Uql2wfmQQ7rYKVJxlU81mECTB2TzgW7/TczYCkd3c/ei4zAq4VIvns4X8v+1EzUYTQJVhxwnXt2IfDzrfj9DJbstGzVldQRnzTZDF/G0l3Urkk8F1X30EIFWClFKBzjv+tWxH7nTL/lDyVc3Hx7aPR2HHxjDSVRQZWwguyY+kAdIAaYA0QBqYkAZiB6mv44DZXBjgkU6j6vNo3hWJ6v/YV+SX8pUBxuC5UDAhEUfOb/vRy1dsoEhqhG5cXsfznPoc4/OYtBu5ayL5knwZWw0QpEbpB0XJzeTRPTbFHon8ywnZnoz0Mhf6+SNUo/tUKq3Y5fzZrkEeXR5ER6QiuhPwi2zLFfHErNjaQhdFrU7IH+QP0gBpgDTwemqAIHUCQBPuyaJU/YvcyxG4fx2ZYqVw7ZAk1aM/WUR3xI16Z2yEL9YzVXJGvRj8sjSKj3DV9lk7Pt6IFZOFPz5au2h/8gdpgDRAGiANvM4aIEiNFqRayhWd6pORQ+ojDwbO1iA7ZtFcCTKk/ujFyKAbLrkKf6r7bt6+DKlxYsvrfDGivptrlHxDviENkAZeRw0QpEYBUl9HYVGf6YJKGiANkAZIA6QB0sBkNECQSpBKRQ6kAdIAaYA0QBogDZAG4k4DBKkkyrgT5WTuumhfumsnDZAGSAOkAdLAzNAAQSpBKkEqaYA0QBogDZAGSAOkgbjTAEEqiTLuREl3wDPjDpjGkcaRNEAaIA2QBiajAYJUglSCVNIAaYA0QBogDZAGSANxpwGCVBJl3IlyMnddtC/dtZMGSAOkAdIAaWBmaIAglSCVIJU0QBogDZAGSAOkAdJA3GmAIJVEGXeipDvgmXEHTONI40gaIA1EUwPzt6dhY+4cJCQE+j25bK3yXSR/81cvQ0HDCqQulSAlSIbHDdZ/ZtPmovmYo7I3IX8lCvYtgH1uYB8M27J03ASk1q7H5h12zIlk/6PQFkFqFJxsKCw6LsExaYA0QBogDZAGIqYBe+l6lLesQHLA0xTnIaMtH6WfL8L8NyzCn5VxeXspCs+vRdpbDFLnYE3DBhkwrR2D21SnsyknDeVtK5CsAtegDMGOW5eONetmBfXjstp8bH5P3fdZmMPsttDP+fnp2NX6LjYUzNMAtZV9J7sNQaqFAZqskye7vz3pAv5UeBWfJFoT1GSPR/uTn0kDpAHSQJxqIGE3flc4jOuLMiwBxus0jjKk1iYF+mV1KnadX481b+vGdLLAKkNqGpYJjkiYg3Ut+Sg/koxE8ZnZ6/qVKD3vxDuLdDYxSG1ZCrvZfkaf25KRdzYXm99LUPpum4dluQuQqvrb0JSPgo/9n62py0F5ezoci3XHN2qffTZ3DpbtWYtdrWuRttziPmZthfE5QWoYzpr8yT4b2040wPP4Cp4/v+7/u7sz8KTidtmTvsQfPxrHsz030TyDIHV7cTm87bXwunJQyfqatVX5v70cF5apT4BibOh7gXNPX+Hi81c4NTSIFXbV9/ZG7Hn8ChcfPtB+bjCuOXdZGy+wp0S1v8F2puNcNogjo4odF5++QNXhYs242U/8hHPPX6LOpf08oL2SBzj5/BUu3r2q2T9gO1PbHFjR+RNOcZ+ce/gEGzLUfSpG7r1XuDj+DDmaz9XbKO+XXX4h+7XOFfidJXsyLqHq4Uu5jYtPX+JIZ6O2T2VKX09e1n0e0LerqGM+efzAf8Hn2xyurlW0UZuOFZIEn3bat+JwQDsT7IeldpJR1NIPj3cMY2NjGPvRC0+fCwUBUZuptGEibduQ/Wk3Bka43WNjGLnTjf1Og7aa+uW+9TcZfGfJR5Hdz7axBt13RhR/M5+PDKC72qnVWAzsCnVuRMLuoi6l3wFjkfg5/lAyjmeVw/gqyRZ3vphT5ET5+SxkpFnTwpLqzSg/m45Uq9Pbwcb7vdUoD4DUBCyrzUH58ZVIU0Fbau5S5LXnYlvZPCQEazPYdzKkvqtEUsV26Yux8eOV2FAUrN0EpNblorQ2KfDYZpAaNLKqtLelwB9NTUhK0LQtR1JzrI1JUH0vX4bC1lTrkV7hlwm+EqRO0HFBB9GkzfWtbX4wtQKpCftxffc4nn0USUCtQOfgCLz3u1FkYudE+hbuPlu2lSng0ZiJ7cyOZZnwMGht34pjqpMxpfNnBYAYwPC/jr7z/MLswCo3A6QX2FPmCHmxnhSk2s/jwLjfBsWWn7E1l5/0Gbdx5PkrdNy9GvoOeLKQWvcEHSp/yLY8uI0FfDzt7T/hohVYliRMDlJrUPxA75OXqKrlPrH/FhUM6i3cQEhSEEit5JBazcdY3NA0bcSuKGo478tBPywxYOJ/XncNbFG0I9xzzVbrhldlr7B7bLADeXq74wlSbTVwixsCjf2D6Hg/Aj+2+r5H6v8I2W0KqczOxEbcZsGLiP42RMCnCfOQ0ZqP8ubF1nIf5QhgPkqr7SGv35Z0zwBPQOpbs5Ro5ttLse34UjjeW6CxKSEnDaXtK7HEMJo6C4tKVyLnQFrwv0PrUXp+M7YdUm+3Gtva81F+PggAL1qMbUaRXTa2RpC6fBm2nViJJZO4ITaF1LcSw5zCT8Lm87nIy+dR20idNybtEKSaOMbSCRHWvmvQ+5hFT3tw41gaVqqjgYbt2HAwZxTPqkZxOzWS0zoN6GcX/OHYQqovcmoAqf7oWKUCQeM/IXeTA9Li86h6ooq2Vf8Zp56/wslLoaJ0ysV3UpBa9wTn2LGutWC25MCCswo8KxHIYmz5Xolcblht4UI/SUh13mRg+AIVezMh2SuxlR37+TPkMB0JWL51FXMNdaW1b1KQmjsI1/NXOHevDwvsEmbXKvCsRE39NxAlliLX5pDqi5zqIVVox0I/J38+F6DTw8B0BL2fZstQmvxRNzwyPPWjISo2aMfOap8a+pjdXgz+tgjJkgTbRhf6ZfjzoHObrs14gtSjSlTX+10HilIkSLZsuG545ZsDz4WCyEDNVIxbhOwOCqmSBPuSbzBWNY6x/EasnIp+TKDNhPx0Gc6sAkzSnqywoq5Gmk9YavdPa3/sRHlTKlILVmDb2VwUVy3AOwfSsIzBXdoipInrszwtn4OcrCCg9UYCEkNGdxmwGaQRhPDdoqoclDcs0kCzr296SLUlYXN7PkqPLMMSC1PzCSySawDXBa35KG5QwzR7rwB1ae0C66Aqp07ko7zJxP4Qfff10+J2BKkWHRWuYwO334k7LHr6oEqBiVDHnXcBf6oax7OCNqwPtW1Y38cZpArwmJOOARZJbStQTeHqIDWjD3UsmvnwAVJUUTpfPlAIP0QSUldcUabJa49JEJHL2mMWfzgjCqk83eH5M2yQwoTlyUZSdZCqpDuwm4Z6SGHeQASLpApI9RTzXLO0HIwwrRzNxJYQYx54HuqgzPL+Rege1t/c8c+8btRYbmeix5/4fg03GKRqQVr5bBAd+um/eIJUI1v4Z4NfZscvpEbI7lCQKkkONOezQMYjXF8YD9P+iXinOR/lVqeCE+zYeDof5Z9byN8Mdn4lJCCBR0MXVW32R1IlCXMKVmCNL38yEWl7FLCylzqxrXROBDTEip82Y2OItCrNdWjRIhSczZVhvmB7YqANakhNSMQ7DbkoP74UdtUMo6Y94RvV9wm2IPAttmevLKLbvhZrMhItr0ygFKelYXOLQT6tuu0IvY8xpC5EZUcDPKP+HM3xx234ujHNeMrUnoajl0/g4bjI57yC8YfNOL13YeBAyw6ah52tuhzQ0Tb01i4JaH/hjkL03juH8afqtk+gO2BbBTZHL6/Bwh1luPNQZfvDBhzdNNvEFg6pQfJP1cJToqiPcD1k9Z0TFW1uDKryzbzDA+j9vEA1Bcl/TDVTZv7pSjH9N9JVpLKdw+yNBjmCUdM1gJEf+T6RyAt7e6MyvS8gVXLAzcBDFx1bdY3nO6qmt1mkTkzzm0XpZu/oQ9UDfy4rmxJX8lonmJO6uk+ezhcpB/Iry/ncyqf5zSKX9ko4u57BxSLAog88l3SiOalzW9l0vqo91re7V5HCp/lNYXnTeRTfe4EOcXyfT15hYjmpLcp0vsYWlnrhn+Y3voHIxLLWJ2h6rBpbYZNBTqotW8lX9kGqSA3xaWfiAKc+54K/d8B1h+l/BN0lChA4m/rlafSRK/tV55rfluTCBnR/64FXnDdjY/B6BtDJI7HBj+dvZ7LbVVxmuY1eDDQruZy2Eh4B/q4VTv0PiQ+wdHmssci//agXI8xn37oUO22l6Jaj2YNodZr5h+UNuzE4rERc5Wsbu15F0+cTsJvlsHbqtDLGdROQk6oes7euwsuCGVu+CB5Nte1XbrJ+9KCT63eyugrYP20Zis/nY1uRAXipbebvlajrZmxcbzaW4X4+B2tY0dKhBfx3LBF2H6DytlYvw+YDadhyICl0YZOBzb4+vzUPSXJUUzmmtmo+uN2LqrKxbcdS8wisD1Jn8VzaVIPVCtgxEjB/nSiEWorNbbkB4D0/fwVySpP8Kxq8lYQ03xJdCVi2byVSQzKGuj9KOgcb4+SKbMtj7fNbMJ+afBdDSJ2NQzf9gKcpJHp+AscDDF6O8w8EQOpeHx/EzoDtF+L4Xavtc4BU54n63vfg62o1ePJtR3sw6ttGZY/aFtcJ4xxUzX5d6A2YDv0Mf6gYx7Oyq/gkoF9qwdhQ41ZdjDUQqo6cTAJSv+1G5/1AoB0bi1JemL0RxUMv5Kl2BmYn+y5hQY0yze/qrFFBtd8vdtezwJxNH0hNEFLZ9NrhJ3CJvNTRn1C8t4ZP8z+B0yh9w96Ikh+0MKmBywkXTgUWk63K57B8U+Tr+v0hXyDKHsAlQNDnC79tE4NUCZK+mKyxBmvkPOGfUfyBzgZZy8XIuaWCU70tBpA6mQtcJPe17VOgacw7iP5vlaIW77etJoVT/CZPc06K82gEvfuiGPlytmJQtsODgT6Pkp96vzdo4dTIfY8v51bcxLLX6ObfOtH6neIzz7f98DxixWoe9JoWTjnRwNMB1DYr79XXQyNdRvKz8Oy2lXTCo7qR0dseFFKlYny1ixVR3USzKpIWoHt+8yG33VdveN0M2Cfob4/eX0rhjvUCKJ672roMSWEdR39c1f9yniebhl6NnCMrlbVLdW0nlTmxqzULe06kITXE1Pn891JN8lF5zimvjGe5nsVlFqOyLD9WjhwHSROQIXUFHBXrsee4GaDyfvtSElh72diwVuUP3nd72XolEsv+lwu9srAxQ4m0igi05bHPWIlSUeTGbkoiOX66sRI2xRBSC5Xp7ycNOLpuHj9p5mFNeSG+/r4hEFILD+Ahg7vvq7DNwaHR/ia2VVfgzr0DAZD6fuc5BRDHO/D1MSfPATVrfyfuPD6B3mNZWC/aXrwch9xdchvjN9XTuCqgfXoOX9ctx0JJwsL8MgzJEd4udBdyoUwUUu18qn9zqFxL/kP4yI36tcnch8lIL2tA73e9JnlyVqf71T+yXgx21SBPlxcWkyk3UcD0YBApRqK2X+IFTi9R19ECu7gQOcqwdYhB2cQhVZw04lUp6nqJA3XGRVspXbzo64c/w7lVaCgT9loFsicaSRXH97/yAqZxE1iWalDMYdl17RJSHNzexcVwXptkdb9+DHhRl9kNhHRYye29+OQnbC0vxmx5fwfmZimQbVTd7+9n4AU4qt+liEieElF11yq5qcY2NKB/eADdR0vhXMGBNCUPNVcU+GOwZ7zfFPTRlq2Bt8EvldxUw+OrYMY72I2aDxywSTY49or820G0rpoCG/U6kv+3IZtHq2W4ErmphttK8BW2eQfRe7QUDrnIJNT1cCr6Eo7deb4ggOdyDQp8WklHjRwBH0NwSJXwSZZSu3B9YZC+rKpBL0tXmapIKgfE0iqLBVDy8ku5MJzuNhlfQ72qtmWrChS3ZinT/TJMvYs0sbxTQiIctU5sLpgjV7zPyVqBwrO5KKxdimUObRW87zgJCUhUFSoxGC00SBGwl22QUxZCrxCQiLRDPD9WCgGp5/Oxp3kpkgyLuozGOUh7LK2iPQ1LmK+Ws2i3askslf98/Tb9bBYcn+eiuELwGkvvyEXeFv+KAqHbMLI9+GcxhNQsfD3KIpA9uNO6Rga9oB1cXYYhBqnjHYbT9dp9RZFSF3rL1FHQ4M7QtiFBKjmoREs1U/QcUsc7cF7XthIZNoqMsuPy/TRtmdjz9k08qxqH1xliKSOpAr3yNP8I+luC/PBoRBcmpHoH0fmRAGBuLy8M0KYHmPRFc+zJbuOA8yaLwplF6SRIrmfyVPipay0BEDCpnFR9Pz5QioY6zCKXksgV/QlbRLK+aGOSOal6nYaCZUkcb6gvoJhqUoVToj/iNdQNhOSAMgYvUbFXrwXzwil9f2Pyv7MB/SySN+aFh08le2808Olyq+eUBGlHtzyFPcbSaITfpvLVVuqDoBEPzhQbpQAAIABJREFUX8rJ041S+cdXzLCooowcUkfc9QGpAPuvKLM2/Uf1YzcV/9tQeoFHc4c9is/GPL5Ui8B8TdEXfzpGVPwbMHZh2i30cMcFh66twD4a+3lT+pD8e3E71fj7aPhBKYCymqPIo66nV2JJsOivzh/B+5GId5rS4SgQ1f0MqDbIy2AlLE3Cun1LsUg/rf3GHDhqN2DP2XyUn92MYlZwtdg8l9MMUqWsNJSfXolFIezV5seaQKVtPjKO54a3mL983MD2korSUXBgEZLekpAwl/eLRWkt2Groawb+p1cjVQXucsoGA+CQBWYT12YMIVWCvewAHooc0KdX8HCoHqerlcikkZPWu05gXEyVP+2B59ZBHC97MyC/1AeEDw9gWwjhiOOs31uBGw+6VDmpqil8DViaw+bOyyzyGgFITbUKqRI0U0Usb+xOL1r35clVvKJv2lerP6hWt5u4+LR2WWhHFaVjU+8n+fT1OTb1zpegEtDFCpr07UcOUlWRy8UsHYFPXz99CVffJa5HDl2syEuvQQGNE57uV/VNBcuz1VPv46p1XDm4ywVNOluEvyY83e9rT30DwdMR+FS+f21bAe6syEvVB/l9PEOqyEflkOTLjRyDp6sUNgEaOvB0ftQKN1vuzWgqV7etXquR+l/ko/Y3sXxU/3S4DNg2g3Pcl5OqHx8JtuYBOQUgVGQvIraLvE5+IyDyf8e8/Whw2qAUfo2ge4ewk/fF04mCAG2JbaLwGq7d3N9GqxVYhVSJ/17EDFLnJmEzK4CqS9asy2mqA3nKOR/Fe0RELgLjkrES21iEj0GYWIJq7hw49qUj79C7KG5JN5i6Z9P2OdhSNB9J6fNC5qiaQurcZOSdz0aGPhih06F2aj0QKhPSFmNLy1qs2bc2/MX8TSKzcpHT8aWYL2zx5buG6XN5aTGDqClfcoyt9xry4QXChjBfYwqpsojtS1DZehB3HvT48zefnMBxs2q5xWtwqLMeQ6qCpec/HMAeTU4gB0mLlfQrj6ngV0Cw+jWOIVX2oS0bFS3d6B/kkRKWf/aIXcyNhGjww2QoGqvbGR1jCj4TUbrvb8POwUyT3zn6Z6xSVasfqAu0IVKQKiKXFdWZPLLrz+1kNh1pZVP7HLoeDPrWL/VdtCMGqRyWWd8XG63jyqO4HFJdnZUB4B4xSOU3EEfai2G0tq0S2eaQytISAjQXx5Bqc2GAnVPfuvwFUr48Ty8895XzTj2z4DiqFFXp8wt9/0cFUkt9KxKUCn/b9vPZlzF4RN7pjQZ/v4JAquOksk5sNCC19BLzKYuKivPYhv1XRCTY41/6yxfV4derwQ5ki77G4DVsu7m/jVKnrELqyrTYRlKVxftzLFe4K4v3q6biJz1Os+A4sFKJ5nFITVy3CGlZc5SKdf1ToXzHY6DIH2nq+0zoLfDVFFKlBDg+D3etVxWkJrA1WVnUc4FS4BQMJBfOgd0waqlqT92XhDlI2+F/YEDClvSApaPmrJsfcuUAtmSWKYiyCCtbE9YgFcL3m6e2Kcz3sYdUtcH2JSZ5oIGCkTu/eA1ODynFUZ7O5aof4Bx8/YRFQjtw2gx2fcd9E6e/V6KmD90F/nxX9n2w6X4NuCr2RSyS+maPUrEZMifVwC+27BB5b1bh0+p2Bjb4fBup7wqwQS62+QlbMiQs4Av817Uy6MqEs49FMl+gpND/3ZF2kQPKbci4qixfNdmcVA6Yp9y/hSRxMHzMIFGCtOk2mlj08BZ7khT/7okCz/6T1YEV/ClPk81JXXaJ5ZO+RAWrcjdZx1WOKPPvOmSbVWPCntb1UAHsSUVSV19FLSsoYzcQkm7ZMLG2rRxR5t89D0yB8BW7xWPh1LZOBYrud2oWv/dF93hRUqdvgXmHv+DniirPkJ0XJlFXvz5U4zPp84ifw1436n0wx2ZfRH6pkr7g/rWqiMsUUkU02YvefZG00bgtsbarxjZVBJvBvtdd74draT965XSMYJX/xseKpO/Dtps/aMF7Zb/q94utCevPfw51U6DkpD7CV0lT379AX4W5eD+LOp4NF+iC9yshKxXrxO+80ROngkKq9fxMc0iVIE97n03nedDC3kSs2WHwiFb5vOZQmbUAGXuS5Sl5n2+DQWrO0sBHu6rbe1uCxNIYKvTroSr/5x3fjPLWd/1R5VonSs/nI9g6qYk5adgVYgksuTjrfA42vxf5/NTYQWrJAQw9aMDp6jVYI4pbpHlYU11vkAcqQTrWjIf3DuJ4+RL/QviscKq9TU4BYEtC+QZZUq0cMHoCp6vF4vmzsXJrAXo1hVlr0P2QQeoVDLXzVANekHXjBx7d1QBpFKb7JYvV/Ts6MTDoRuu+AqSzoiZZrMlIF1XIhtEa8RQXLwbaRHGB2Ff9OkFIFbl7P45AmWJUtzmx93OPKdX6LErH+pgiw9kr1DYqi9nLjwDlkCrt5UVJ4z9h645MGWIX1D1Ak6jKN4XURByurJKfgjVycC12GeZKNaKEQR2LXMqR+6uoZVD6A1u3VcLsvX9WHncqQ2oBtsiFWq9w0n1eXuxecjQi95ZSqCRHgc2m+20OuF1szdgqDBQkqX6IVf7TwDI7P5RcXBdbo1TKxCpeECVDqm/5rBeoqGVg78Dcsj7Uike8PjdfgmqX78lguTikAh3/uaa9gZCkesVH48+wQQZ31dq2kgSxpFjH0G0sY98vroHz8s/+1RgiBKm+NJiIFIoYnDM2B0pb+nmuJFs/tRcVPv+Ihf+9GDjJU29sDhTsa4X7Pl+Nw/DclCBF9PzJRscgr46/wgsfpWTk1XZjUDzJ6ccBuNQzLr7IXoGv4Mu2ogA1l0V+qMlDQCJqt4Rs8XQvTy9qcpWc+OTcGnQP+lczGWhRPx5VtdLJSL98TVQKp2xwfFCDbtNCUica+pQ2R/pEjrHqPAvzRiFsu1fxKP2Yhz8kwgZHiQv9qiUFg0NqHn5XZKG6X5Wb7LlQanxNCbOv8jWAF0BZXbw/3Eem+q8zZmOSAPty/5JX8vS2mO4X/QkKqbpHmop9DF4VSJ2HxKXzsaQoFRsOrMTGXclIks97Bda10UY7NlaFgFQGlfpjBYXUNGzWr20s76+LpC6ax+1St8+WywpvyS8ZUK086SphDtawXNrzOdhSOj+iU/8xhFRelKSeVve9v4I7x97UDl7QSvku1bQQH5SMnbgjR1OVKGmwJa6UCKjRdvyzqEOqDUfeUyo2/7BUFeXQi1lEZeRIjvJj5JtOHPOi/6hR1bnqYq7bTz1dKUkThFT1Ixgjsci5JkrHx1aAqHr5Il+1v9GjOl/h4tOfUXuPAaJJdb9Ye1N+NGs5LixTn9zKe03kUh4LP4j6Uw9U1f5Gjy9lj0699UyJuJpAqli83muwbqxyQdPDsgTJB6Kq1ANftb/IF1V9J/vuJWrvqp+cpe8zX7tW9kkt3Fn67yXobyCYfQJE/T55BV+1v1Gqhgz6z1D3WPU0Mb3Ww/zfBwtM4xGYAi4SRTy6c0Y+33jOqb+QSoKYqvWfj7rz0wxSI3z+BE07ELmyvkIqCRKHVGO7/YVLAT+sEbZbWtXAn4ql85vG/zp7BChrthH7q4rDNFoSNyBsOy/c4pG+mm0CdR/Qf7F92HabXY+96L9hIb2CP/Rl7L3PDWozVHaL2QDZNwYPcRD2h/XKF++3WgAlFu+3+sjUsGxR+ho+pIZ4WtQbCZjjsMNRugIFrbnYw6KQpUkGAMie9senvcvmKbm5LGqsB2bRp4QFFtZJVY0f349N1+/yVderv/dD6vzcFcgp4jaI47ElFNkDDKqSsSRjHuy+G2p1G9r3DFALjyy2vsIAA9VmBqr52NOajoyNPN1CZYPpeRNkm9hBqjQPO48d1OaWPr2C0QcN+M0Og4RqlrvKFv5/rFr7lBVb3TuAQ2YL6C9eg9/0dWDUt/j/dYw/NFig374ER691YFRdxMWitjsKcYPtG3VIlSCJKf+gT5xKRtHRbgx4/NGFsR+9GBl0w1Woq8hXi8BWANfvBzEioin8oh4RSJWccH0r7PHAPwWqPQGsiZVH6dhjUcV0jtwPB1Z0/oRTonDq4RNsUH+/uEWztuqpoQdwbnLw59SbQKoUIpLKI5cnr+iWBcu4hKqH/sKpI53q7x1Y0KhaW3X8BWpb6zFb5KuaQKrEIqnNn5pGUhVYZovma29CAtZxVX9vr8SGPv/DDc49fIZcFmnm+apm0/27tpXA28YesmAQSeU3EOyxqHa1vgzWtlV/P3vvII6IKO7TFzhymUWaeb5qhCKp8nQpW3KHafvHftSr7ZvQexsKmrUPzRgbGYS7rQJONjXLjyUXUrH2bdmovzzofwAGK2r8thsNhfXK8+jNIDWi549yzjmrO7XXCK8HA131KLD5z1UfYOfuR8flAXgeiXOY+Y/Z3omajUFumKfAbsm5X7vAPfdh/Qc2OJsHlPVe5UIq1bUlpSjg2hbqAQq+tsbG4Dmbpw2OTEQr4drNtPJ7/0MfvJ5+5fptmnoh+qt64pS+cj3AblVOL8v19RWcibYm8BrzxfsDbTaHVCc25IqF78VrKgpMHmmasC4V204L4AoCpjo/23c4sed8LnYdWYpFOSuwy/dgAZ2tcnTXBJDZagFn38U7y/UrDcxC6qHNKD+7AescuvZk6N2MXW1Z2LI9cM3WpKK1KKiy+yKc899biYKm1XhnnfH0fFLRamyeSESULfV1KBvl7U5sKLKb5M/qbNf5UM8GMYTU8AzVGz7z/7dBeerUKP73iozJXzhDCCGS/hRVwPpHMUbyGNQWnT+hNKAUsYxhLNYV32Gee9P1/JmudkuiMG5sDNFZXisy5659yTcYqxrH2ObG4E+bEvqr7lXAnj2IxXDKODy7lAKodKQaFvLo2xKPTI3g4v2iX6pXc0g1yj31Rx+NriX27SuwxgTijLYXn83fshq72LJW5/NR3pZqvNJOMEhlEcmmzcr+rA3139nNKNznh01xTGluEnLaA4uXEpYvwMYmJza+50+J8O2zOBl57bnYtU+9tu0sLCldZvggBN9+Kn+bfZZgSRN6jRj/T5BqweFmAzHln89uxO2PWL7RML5KChbFMB7cKbcvwHds4Wx/PlV0n04TLz4gO6KvO53PWf6nKu9y8MsIRMcCtK47ZkS+n67nz3S1W0Ly2lK4+viqASw9ycI0aMz1zbSWyH8bPrqJ5tmhtKjk5fbKj5RV0l/yJqtX+fnzYRRAyVPh1h+ZOlEf23e8i8KK+dqlsN5ejM21ydrZHrn/dqyrXYTkCAKVz+65c7CsdDW2nVbWavV9Lvz+9mLk1S2N6LETFicqkdK35iF16zJkVC3FOxkhptyXL0Velb/6P8BOYW8MXwlSY+h8K4KwJ/XgT5XjeMYuRomhLkax/J7nsIp8sBE36tUFGXHuZytjQdvEUl8Wj63L0/YOdvCF6y3uHzOdTtfzZ7raLfG1VkXO6gjcv1YXYsWxXhL34/oOq8EL3fjo0yNipvc49i/5JK5mbglSp4Eg7UkX8KfCHuw1rDiPl5OdXwwfeTBwtgbZ0yUiMQ3Gn+A4DI1zSPUOD8Jt+SlsYbQ/ZXqZrufPdLWbQ6qlfNt40IfKhoTd+KpoGF+9FaTuwKdTPj7eEQz+3oUi3yowqvZ829JndK2NPw0QpNIJGld3TXSRiL+LBI0JjQlpgDRAGiANxEIDBKkEqQSppAHSAGmANEAaIA2QBuJOAwSpJMq4E2Us7tbomBQlIA2QBkgDpAHSQHxpgCCVIJUglTRAGiANkAZIA6QB0kDcaYAglUQZd6KkO9n4upOl8aDxIA2QBkgDpIFYaIAglSCVIJU0QBogDZAGSAOkAdJA3GmAIJVEGXeijMXdGh2TogSkAdIAaYA0QBqILw0QpBKkEqSSBkgDpAHSAGmANEAaiDsNEKSSKONOlHQnG193sjQeNB6kAdIAaYA0EAsNEKTqIHVn1zk8f34d47d2Yr3uu1gMUPjHzEDz5mH877QPDZ5VTCdZ+P4kn5HPSAOkARv2vDuMP2Xtn6a/C6Rh0vD01ABBqgZE16D38XUZUp8/P4Hjmu9iMMAZ+ei+dw7jT4VN7LULvSVmtmTgSM4jPKsax5/e3T2jIPVwdS287bXw1qZjhSRhe3G58n/7VhxWj1PZII6MvsLF569w8ekLVB0u1kSK7Sd+wrnnL1Hn0n4ecAEreYCTrI27VzX7B2ynPrbmfTE29L3AuaeKLaeGBrHCrho3eyP2PH6Fiw8faD/XtKFsv+zyC7k/dS7V/gbbmdqWcQlVD19yn7zEkc5GbZ/KlL6evKz7POAYV1HHfPL4AZYFfGfRtqken2WZ8DCdtFehJ43Z5IBb/r8WnuIkbb8n2odptV8RuofHMDbcjaJpZbdFPUW6T/yxumM3GnRaUV1bnTPr2mp63Yi0b6k9naZipPFpNg4EqboBm6pIamVXB0bHzwUBTJ1g7Tn42gfM1iB1fdqQAqgRvIhmH3XD82gM/U06+3R+m+oL3eFKDqnVDuVEz9qqQGrTRuwSttjP48A4B1QGU/Lfz9iay23PuI0jz1+h4+7V0AA/SUhN6fyZH1/Y8Qodfef5RcqBVW4GjS+wp4z3R/TB4HVykFqD4gd+GxSfvERVLfeJ/beoYFBvAZYlaZKQGo3xScnEkAyl5biwjPUxCRcaFe3cyI6thqf6HDFunyDV2C8mWjCFVLZ9BprzR/GsahS3UzMIOAyuVWH5mvYnDVnQAEGqBSdF4sQ7fjdUFFR70bS7TihpBw8O4MC6eaHFPO9L/LFyHM929GBPgratydhf1DWCsbHYQ6ovcqqH1MZMbBdjWPcE556/wslrLZgtObDgrAKKSgSyGFu+f4WL48+wYbUF/0wKUisVMBz/CbmbHJAWn0fVE1UEsvrPOMXsvBQqcqnYOSlIzR2E6/krnLvXhwV2CbNrn6CDHVuOmvphucQ0Oq/21SQhNSrjIyKngZDqzlL35XV5T5Aa1vUvKKRKkBI+wx8+Gseziptonv26aIj6GZaGxO8RvYbmFgs+Iki14KRICDRcSN15uQvPn1/BjTorFwgbjrzH7vAf4fpCW0SEIfocb5Dqm7JNy8EIi5gdzcQWMYY6CFpxRZkmrz0mwd7+Ey4+f4naYwXW/BNJSM3oQx2L8D58gBRV5NLqlHkkIVVJd2CAXA8pTFiedCQ1KuMjIFWkgcxCS60SSXWvt3IuzbRtCFLFtczSayhIlSSsTL2JsapxeLP2h56REdcmerV23SU/kZ90GogxpC5EZUcDPKNXeB7odYw/bsPXjWkBJ78CbedwPnchDnSdwMNxPgX+tAdDl/MDktkVKGR5pbORU3sQQ+IYhtvvxJ3n6in163h+d6eJWJRtRy+vwcIdZbjzUGX7wwYc3TTbt59is65d/XEeH8RO3aCwi6myb7D8U9WP6dwv8ceqcTzb8gVWGrSlvjjbPqhH97ceeH8ckyOkYz964elrRYVT1V5Tv/LdGN/G8LUfDapjKTA7gu4dEpILXej3eH1tePpcKLCp2lftp7Yt2HtbtjK974NUkXsoIquszdV98nS+MqXNp7jHnyFnK5/mv3UVc42Oba+Es+sZXCzaKdIEeC6paU7qwjTccNXC6yrAYYO+rbrGc0BFezx6Kab5TSOXm86j+N4LdIjjsygof2+Wk7r5va0YaavFSKUD6wL616JM56vsUNIM/NP8xrCciWWtT9D0WNUPYZNZTmpCCi40fgpvWxnOvG0w3lEZnyRcaGJQKiBVgpLPLCKrBnYF+Cwy2yQXNmjPtbExeD0D6Pw0G7YpOmbgOaSC1JQiuPpU5/7IALqrnb7rVeC+kfFDYLvJKGpxY3DYf40YY7ZE1S8SJFs2as4OyOlMbLZI/hPXxYCcVLUvPsb13eN4VnkXJ0NEU/NaBuBl497XAGfUxlxtK70P1B/5ZDr5JIaQOhuHbvoBj1XU+/8Ci5YUaOvBQxUU+re/Dk/ncs3FVoHUNvReUqr11duy99rtw4fU56M9GNXYzO1XQWd4kKou2lL7QvfeAJ43pSu5qH9MC5Hf+H4HBsXFWPc60lXk998kILW3q1++KPsu+vw4XndNVH6Y7YefwCXyUkd/QvHeGj7N/wROdeGS+MGwN6LkBxWcamDOvHDKl37QXouhrXa/71TtFg+9kNMPGPie7LuEBTXKNL+rsyZwe7Zf2QO4BAjq7Xj+CsaQ6s+59LaX4cxCgwuwvlipsQZr5JzYn1H8gcH2UjFybqngVG+LGaSKPGEW4a5MNexjtMYn9hfhBvTrzjH/OTGC3n2RnfEw7y+H1EceLYz5bBtEx/tGGpiqz5xouKGCU58dDBK1N77mfYqAbbZSdN4PchMeFFIl7HAqBaq3U4ONI/e93EcPOqPq5wj4SFzL6NXwWjal+iSf+3weQ0gtVKKXTxpw1JdzOQ9rygvx9fcNAZX1auAbvVWGPfI+8/B+6wmMM1h8Uo8DqoFVIFUBvPHvD+JQPsvrnI2cE3z7B1XIUW3vFxwHVgMYVLZRAe3Tc/i6bjkWShIW5pdhSI7udqG7MPACEXq6f+KQ2rx5HM+qhvE7IwhT9bHggkeOFgx+WQAHj/7ZVhRgf1s/Bs6qIFW1j9XpfrGd/EM83A9XiUOG0uSPuuFhF2mvGzWqdv3+DvRVJL9TCphe4kCdMcCndPECpx/+DOdWkQqQCXutApSmkdRlazEQJJIa0AdRNPRgECmGfqhBMYdl17VLSHFwexcXw3kteHX/9vwdQSKpBv6tU/JSTWH5sJLbe/HJT9haXozZsr0OzM1SItKm1f1zlqInWCTVoN9TNj4GxwoYkyndpgH9wwPoPloK5woOMil5qLminIPspi069qhBaQT9LaVIT5EgpeTBxWHRe2V/lGyRkPfloBKx9A6i92gpvw4lI72sAb3f9WpmZ6bSP3lnlXEYu9+Lmg+Ua5UkJSP9016MsOtVCEiVFl6Vp/zHsoL7rui3gxRJndLzzOD6RseL2vk8leeoaDuGkJqFr0cZRPbgTusaGfSEUUavCqRegafLqUsFeBOnv2ftaOFQgcIr8FzK0rXN4VgV8dQezyKkjnfgfJl/ap+1oUSGjafoQ0Oq9mRT+mvcltbeD/G7HQxSb6I5xMnpaBmQfyC8g92o2RgsAuC3RcBnqOp+sd2Iux7ZmunvAnR6ohwlEX74QCka6rgpqur9/VJ8yJeBev4TtuiLqSaVk6o/jgPOmywyaRa5lCCJ4w31BaQkTConVfhCvIaEZQdy7rLI8ktU7NX3Y5KFU8IG8Ro346Pv5xT+byHnUXt+T9YWDqneQXSW6M75Va3KzIqnEwViTKb0VQDzCLr1tkzpcfU+FHYMwLVK953V8REpVvnWih8jO6Y6m6PqOzo2jWV0NRBDSJVgLzuAh2IN0KdX8HCoHqerlcikXgjBoG3PFVZkpAW6cKHQfzyLkGoQaQ1mY7j2BGvLbysTSzG+2mUNUiXJiYY+1VTbyCD6uxpQKiI9Bhc7AZ9WITXUdlrbp1LsfOml8SdwLm5E8RCfvn76Eq6+S/xGh0MXK2jS911A44TXSVX1TRW5ZNPdJ/mU/jmWjiCWoHI9k/Nh5YImnS2Rg1Q1LPN1XPlUvn8dVwHuz7BBZ8ekC6c07cXR+GjsUo3bJD93ftQK9+CIP/9bPbUdKlI3yWP7zzMOZIbrpJZGeQ1VngIRNSg2G8sgdliFVKkRt1kdAEHqjIra+c8bM+3Q59H2UUwhVe6sfQkqWw/izoMef07qkxM4nqEVQzBoO+Bm+xKkhoqkCnElF9ag4/IAPF5/TpbnQqlhzuh0hVQxjVxRncmjmNq80yOtbGqfQ+qDQSzQQ0GkIFVELr+/DTuPHPqKsxggjv4Zq9ixOaS6OisDLvoRg1QOy0fai2G0juupay2QJA6pDO71PhH+MstJDdheew4L/bHXuBmfMGxW2x/qveOocW62Ly81LiB1P3ofRXOhfw6Hgx3IniK/hxoX5fsgdliF1NltSrEqQWrA9craGJhfG2h/8o1aA7GHVPXFyr4Eh9wsKnod4zdFfqAyYOaQKtIGOnBaNWUbbuTS75TpFkmV0JxvLSfV30f/SZBc2IoBGVYH0ZHj/1xsOy0hlQPmKfdvIUl8gf/Hf8aqxRKkTbfRxODwFnuSFP/uCQdFnxYdWMGf8mSak+rbNtBnwneSVIANcgHST9iSIWEBX+C/rpWBaCacfSy6+wIlLIeZL8/UIdusapM9meqhAtjGhVOqbYPZtPoqallBGYNlyWQdVzmizL8zSIGwu57Ja6ya5qQGO776u7gZH4u+U9tu6b0Drd8pN4CeKzUoUM9UWIUgS8exYn+QSOpHPP/yu1Y4Ina8YDZxKB4bRKsz2HZT/V0N3Oya96gX+zX9tqG0i+eqhrqJ4Dmp3ozdBGkaH0712FH7/t+X18MXsYPUkgMYetCA09VrsIbBgyz0eVhTXa9Uzeum0xVI7cGNxuW+7Rfm5+D8PSUCO353p2b5pXiDVLGSwfhQBfY4tLmsRqIzh3LhK/+r1er+BrcHA2x6P1MUCkhghVOt37IUAGX5KL0t2aLQwdOLmtxk0wuyVZjVtm9DKS/mGrvfiVJNLqu/f9p9Qn3eiBIGdSxCKReSXUUtg9If2BqlEmbv/bPyuFMZUguwZUgBwJPu8/Ji95KjEbm3lEIlOeJpNt0fYgkqZvPcYwrUscgl+z/lEl+3tTETkr0SuffYsTmk+pZneoGKWgaxDswt60OteMSraXW/hOBLUDF/aWFZkuoVH7EHG8jgrlrHVZIgls/qGLqNZez7xTVwXv5ZAVTmS7NIaqglqORzPErjE9YPpz8NZiQiSwWJPGwvBk7mIZnZYnOgYF8r3Pd5uo0ZBDkb0M+imz+OoL8pEstDcUh95EZ9TrpiCysQKmvFADvOmBf9TUZFhVNxbtpQ4+b9H+lH6z5RwGmD44MadJsWTkV6fBxw3fHfRLAcetuKUrj6lAfgosetAAAgAElEQVSXyNFus/HhuspfMyw/3S94db8EZxOPqI/0oyGmYB7quknfh/c7Q/6Klr9iCKkHjZdwkpd1uoI7x97UAJECbbrlmMQSUOOB6QHhQGrQttkxNEVW5pHWYGBpr2tWViEQNotXTdt+4QdrK0Ac8y7gTyw/qugC8oP8ODfc8E/v+6YdRZ6cp9P42d6my1Zpl4uZGKRmo2PQb9Pgl9maMQ/oZ5C+iW2XySD4EhW+9VP9IOqfZldV+/MpcP93CrR23HqmRFxNIDXkElSayCUf1718xQAGeuLPV+0v8kVV38nbvETtXfWTs/waUfocegkqPSyz/QSI+ux4/gq+an+jtARmyw/PUPc4CKRaWIIqWuMj9GDtlUfW5HPBC7d4ZKwFvZm1L86HgPNMnG9mEFTr9i/hFpEVMUSRkP88U9vkvWG2fmfkz03ZVwLChR80r9prit+3kR8fm9rPKhu8ff1KMZnZ+MiayMPvithTp77BkRBP92vo8/s9eis66K8R9L9fS+SL6eaL2EGqNA87jx3EkHrd06dXMPqgAb/ZEfgYUEOQHO+Cp68MO32RWL8A4w1S2fJX2040wPNYtzZsJCBVcvBnSgd/4pRtYwVafz+IEVUu6tgjDwbO1ugq8v1+ZIJ2VndiQLU4v/Ijp/1BET/K4RZO2Uq6lSVf2A9FX/3kIJVPI5+8oqu4zbiEqof+wqkjnervHVjQqFpbdfwFalvrMVvkX5pAqhR0CSoeuWSPRdXkVjuwovMnnBKFUw+fYIP6e3slNvS98C3ef+7hM+TuyPTlq5pN9wddgorDMnssql0NXXZWTKZdx1X9/ey9gzgiorhPX+DIZRZp5vmqZpHUUEtQRXN81H218N7ZrCy6zrT9/7f3bsFtHeee766ap1O1T81UzXk5+0xtFGiIIglDpGCSMCSSoUiKF/MSmiDDIKZJyjS3EMo2ZYVRaG3ZkWWZcqRs0YysTdOXcZzEdiZWxpET2YkduTyjeLYVOyqnolIqHr/kMW+Zp5mn/E996wL0WugFLIC3RfL/wAIILPTq/vrX3f/++ute15eHV8eh3K9mAI//8Bpu2IfDy0MzfvEKTo8/bi41e4qgLjxjrGyIuFmLszWbML3wCq64NnDd/OgaLp+bsDyrzvZuD2Jr2jbVOpCHCrj6oWIPOVjz+gnVYOCJy7m4/JvXccWwhxWv6lk/yhOneh8qzkmXdYKC9G8F0rRtzlc9i7TLzrXLJorU0oxekmdR7RB3yvuqS/jvj9zG51OvIlNkdh+sBm/tMBZx8KIzDjlY+SyNV+Z9i9mr5hm8a3nUrjy5uXmvWTCPitvQw+21/WSA2mZQ6if8Lfzs67fx+dd/joUiT5sy+4CubHwyPamb267YJ29N+1OkajvnrVmZhw6acVK3Rp7Ke0xsEBuoxMMef9k87PrWrY1+8s3WrOMg1uNWz1NdhxKPKEvsaxIbXQ5fEiv6DK7cMJeIN+opbbr6C1LbDE79dFsrVp/hnbt1cbyuOr+rDdOLtodewkhc59Ruo7FHxxA/c/HA+i6+8qCxEUWqxihbt3HZnehtfNz1T87l3YCV0w4PMEMHbuLaJf0RWFu3LthBbYW6c8Zp38Dlf16LzUrl1L21zGzHR964jMc3aaNNkNpmcOqnG9/oM50AfvpWpw1v4frL7N+2Qn/APJbTd63vbyhSAybeVt9IurEw9BHe2T8QfJH6+5u4ce0ynhn3PjVg9fZY3wbE/G1t+xoiyIgXfcH3U9jWp84tkeojRnx97p+rR0NgBaRtBqd+apDp+ggfdz9UMI7XrhtbpBaLtbWv52uOP9qCtlAZ2DIiVc003xNiMkAGyAAZIANkgAxsbwYoUredJ3V7A8sOifVLBsgAGSADZGBnMECRSpFaVjAzO4id0UGwnlnPZIAMkAEysFkMUKRSpFKkkgEyQAbIABkgA2QgcAxQpBLKwEG5WTM23pfeAjJABsgAGSADwWGAIpUilSKVDJABMkAGyAAZIAOBY4AilVAGDkrOYoMzi2VdsC7IABkgA2RgsxigSKVIpUglA2SADJABMkAGyEDgGKBIzYOyAnV9VagM58+cErMdONCS/3nxGUYM/Web0dRUsT4AhCsQn+7A6HTlqtOXMrZ3euSzNYHRuVpU7yrFBhVoOtaMZGP+b6ITrRiaqNba2tOmu2Non46iskAeYocPYnS6xHTzOMjPr2eeSv3tvmrUeTx6szLdivRsHDGP79csD6XmeUdfX4kDJ9vQ3V+JcJ4dIjhwskCbybs+hFB3EunZmJN7TX9j13Vkj0d71KWtftbXjPH5esT3rCPL6v220PvIYEvJ/aX0K0NpHQN+7FuFlkwtoru9rw2PtGK85P5Vk97d9RiSet+r+W41dVRTjfg+jzSF6flGNNRrvh8UDhvRlKpF0u9fej/SF1rRpEtPU4booYOYfKIRsey4UIn2hT4M3eeqrz0FyqBJNxSSsbsV7dL2C7RRu63yVVP/Wrv6v44iNc+AlWg/N4Kpo1HngLS7DsPLI5g+04i6bEPwa+gYhlZ60VmKwA1XIt6hGZzUe++OoC7djPGlAYyfbsVgpg7RXSGE1WuU8kX2RpxlUr4zG1clOs+PYHo+hkjedyFU3n8QMyuDGBrU5EtzvZGm2G1lCOnD1XlpRqd7MHOmHtWlNP7BFsxcbEXSa+DdHcPQxRRmFhoRLSVdyf+uanSfHTA61IRGVPvqgGqqkCjUEaf3Y2x5BDOLLUjohKiU71Q8z1a+7u1VB/y89MlbWz06+2zOzT5hNG39P9hiignhy+Bb2kytU3QWsHndkQHMnHXyGZ3uwvhcff4gbvCSQnrKNdgWSD/LirC0uB9xj/4ge52ftDbzmn2NGJ1z9knV9yYxONdS5l8HJqUNrqQwdsjnxN7oV0Ywc6EFDV59TyEb3d2I8ZWeAmOAydjMxRYkCghZX3Vm38tLUOryuSuC+GAhEdmIocUUZpa70K5LV+65uB91uj5XOFxpQUJ3X6/PjDJ0oMnVR4Ybo/ltJFWLA/MDmDmTVL6rx9DiAIYm1DI1YnhpBDNLLd7jR15+ZOweweh9dl/gd8zndb5YzbN3vt0oUvOMJJ1FD9rvdhorlunLG1iylaBrmI50BXQ1zTCi3Wrjcb+Po/vUoFYQVt7fganTzeh9qBmdEzHUNYbzhGdirhejeR14K8YupvLFt5pPGXCXmhHXlieMpidMAZvvTXLaKmuXUAjh0TbMXEggpt7Hem+I1PmYS0BUoK7Te+CIHx3CZKYq+5tKl5ep7ohVT90J9JYippX8VbbF0X9uEOOz0bLEYjim1kkl2s8OeHt2ayqc4kY69DybeNtXtfXGvTc77pkVGejtvxIHIcXeG5Vvg7dsfq18e9o6ggMLKYxNCIumgBgalHoII3kyhbHDVWa7627G9HIbkn6FRTiK/ot96G511qm+Lcg1Yuv8wdqXzYSlc42b+3jkXZVoOlKumJTftWJMhIUISnWlKBxGxCVgnDaR+hvBzEI9KteAtejhHmNy3HmkRS/SitzDmOCfrMv21W7veET6yaUWNOyLo9evcA6H9N49Q+Bp2uPuCKoLCOxwTYWSXhiJ+QFvz+7uCudqltzTi7WyRaqmDB71nt9+pM32otMW1NoxzdkGnfzY35l9ndn27c/4qrfV+tgleCLV6MRHMKM06IIGiddjbGXEIVwKXl+kMzEHJFVQhhCqES/qENKZOmWmZgrLpqM9yJxvRkPBDlMVqRWolGWY3aqQCSFkdCyu++ry6mPgScyPYFzt0I10rIH23nyQsp7X7v0YGs3NGMPqwLsnjvRKFw7EXb+viTg7K0eeK9ByJoX0/RHoPB/DZ4cwc+GgwxsytGCK89H7FaGa9U7K7HgIo4ct2892IbPcg27b43x3I8aWbRuG0TDXUcBz4SqHI9/yXQWSJwYxrNijHK7MwafAcrDU53IXDtidqfzvKZyK5Xmjvt8JItWaYC23oEEVqa1JjCkrDYZX1G9fJZO2kTZjpcKc6IVRaYkGYzKnrXextWawtnktNPgW7CsqUL0v19bLYdv3b3ZXIFLAm2vYUASa2t/Y5Sv3tSWByZUh9PesQZsw+hVrBSlcifZTHqsg7rwq3sneMyMYn4ub48dUK6aWpW+JmJPt3TEMLg1isC9s/B891IHBe33UjYwZy73o7XFd6yVSjc+HMNhv3qdg/bUmMbnci8GUhwffuHcfBvute8v/BUVqH9J5jpMCk5cTPZheaUWyEN+yFH+hDd3pWrRMJ9CeVsfnONozjWgZqYU5Ru9HvCy+KFILcuJmfh3+D5xINQb1EjoXw3OmE0++jRVBw4gav+j2pIrYGdCLFemwzqYwfTLuitOMIOHwHhw0OsyxEy0YOjOAGRFStiix82l0ILbAKtCxFhx4zN8VFKmGN8iZfmI+ZSw1HphvRe+I5dWdasP0ci/6rQ6wcqILM4tOQSnLbaPnU94eZplAXGxGg3Q0mhlw/uzXO1TB8E7KwOPVERp1MeAMRZDPFnoxeK81GNi29vlq5M/DC+yr4dbEMHSuAy1WXUfT+9HiDvlw1+daidQ9MfQvDCAz5/ZUO+veVzny7GWJVK2o0qS/ywpLuZTCjGNFQXPtnmocmO/CtLEcO4KZS31Iz9Z6hoRUpyR2bcjy6KYwvdCKA/akJS/fyv2M9jZSeEKwuw79czGEsyK1AonpOKLhCktcSl+Rgs7LUrmvUuOFj+DAmYNosSd6MvFbHsCgePw9672ISBUBda7NMdHLLoOf7sPMxR4M68SB2HglhfR95bWN8rhR7J+tmyp0X8j3LK8ufdPbvSZeVKuPd3hxjXbd5ite0vBOGk6OFiS0gqvC8Fg60g/JZ73G6osu7CprG4NhjZAzPtdMbLw+z9aFVT9Wv2n3/ZG+hBL6Yl3jTkv+9+qbhW3XRKt6n4f4tfNSX4f+2bqCMbzmKoPPMfN8oswVBYrULG923Wzwa8BEqnRYEvejXx7OM5YVJ+rb6+pl3O5mTGW9oU6RKgH24/MJ9J5sRtIRxC0dyaC3QJPY0Oz9BPQijclo9EWukfTcoiZ7j9wAUKpIbZhL5XteJT8SNymeHvFuL+ryZnpnp2ars8vvah1JiMT0MTW2txLtZ3KDpgjc6bOtuQH2VC9mljo8O3/xuIxNRBBqqTMD2bNlNzv19FQ1qveIgDD/qlMtGH+iBcOLKUyd2Y+mtmIxuTkbyrKuhDfMyISpW/3c5/twBZJzHa7JSAWaTvZhyPag6OrTU6z4vK9tE4OnIiLMvrbkV58idVclEpk2TNmC01hq13FklS0u4SZ2+IDr1RXDKZzVZXqVcAP1eh9x0wXsE+luRL9D2EmozAgmT5ueH3ui2ZlKYHxlAOnjLo+QJQAnj7rCRXqakVZWOIyJ34WkGcfnWe/FReq4SwBk22ChvsIov0bglMyCfy6zKzbqPe5uxPCRXPhONu/2NeGwZ4x93rX2b8QLuCL7BxKr3DRm9vHaGP19jRi7VMDTaOfFCnmSfjC0J4aWtHNTrhmLXIuo0m9VtjUivdCKobMpZM4V2LRj1GEJYtTreiWvYtPY4Q5z4qR8XnekF2MZZV+BOy35v5BIdX0nzqipU/XKRifhKIzk0VY0+d4PIOOPO+7UHTpXi+RDXasIeykgUmuq0ZSywn4UW3lyyWu0OqGYvYIlUnuajdm93yVWo5NfWYtZeMRYlpYNK5WG18QaSGvqMDhnboiIpDsws7QfdRZo4mXLeG1+yYNx/UVq9b6cR6RUkSplyQsPUDodiYN1zvTtgckUqXm/lfLbGw0uHkRLNr7XvF7neRJQDc/liVo9yEYYSBuaZMnGGHwTZgcXjqBp/iB6+yoQkWXFPRWIueJ9Y/uq0S4xvssDSB+rRXVe/djlUV7DMQwtpzA032oI7WINyfH9nmq0z7dmPajhWE44V+6rx+glJb7OLSQ8xYqSNz/5NwaRzRWpZvscMew+Oh1H73kRkl4itQJNT4inNYWpE/GsByW8L24JVzNsJGtnS4hIqER3tzX5kOXVIz2mcPWMrbbsWMQ+kZi1JGp50iT2VkJQ1GXrWKYXk2cbEVfqw2BY52EW79uCKUhNHmoxqMamSr27Ql9Mj6iswmiEiH1Poxwe37vZsn8jr4V+p163Zu/N2Oz0vEvQnz6YL/KVCYIR/rPof5e3Ea4lq1vnejC10ochWUURz3fBcCx925K6nDpZ5+nFrxzcj/GlFDJnm5Hc57WELrGxA2YMstg8u+mzAnWZNgxPVCEs8Z2xClS3xRzhZPF9lUjOyUQshfEn6vM37HrVYamf23W8S+7Xlg0fEC+wPeGvjEfRe0HZVOu+h/zvEqLZtqrl0BwLpo9Gc/294XTqRX+/X2eCpOHVnyh1qr2/8r1dfu2rKVLTD7nFbxy9Z83+Khufrv293/vwuiwvLjsGSKRaSzT28rAro/kFsLyuaxQYb8SEXWxGPCtSq5C8vyq3ZLcnjmFDxFag7oifOFQVOqdIDe+tNjY8OcpkNHqfDW6xFQeUHeQScyO77u04zjUVqYZQd+6szeXb7GjS97tiokIhiEAZP9HqWp73IVJ1A7ykd/9BZOzYP+l05LqaKNpnNUfsaJbVwrvCqNybn89cWdT6MmMHZ4RFWarzzaSkYXG8MoLMRfPUhfSFQaSPmPFoDW2VqMtIffWgXTzz7g7ULpub/3AEDdPm5jdjs9LyEKYW3MeamR1qbjOT6l3MvXdMEgzurBhmY5Cyl9qtwdexemDbyLqPR11lbRqPY+hUo+XNMuveU6Ra+Zg5l8g/lcGYvI5g5oxMIs08SIiKeLmH8mL3rA0zxTzg9v0KlkE8aQMYO1yLznMjGJ6qxeD5IUydlCX/avSeTiAmO6IV3qTtTWk8g+bJGGLTNnRPRJF8qA+T6nVe9W5snPIQoWILoxwe37vZUpkq9Dv1ujV8nzzhipV3l1mTJ0P0S7+r2DjLlyZvxvVLLUh0yG562y4VqDvcgu7saQ02x96vcqTR9NkWHLDDn5T+1jhGScKhVlKYnGtE56kBY2KUudiF4Uw9GmTFxs6vbKyzVwalfCLkwpVomk3kH8tn/0YtV6F+S2Mvwzalfm7dz9gcLKsdlwYwtdCG4bMDmDzeaArn7ipUj7QaZR7s03Bnl03Nu/3eg0NpE6pIrZxoy4VrhSOo1vY9ap1JP7SJnlS7fHzNTTTWwRbBEalGoLv/DVCyAUFmmMMjXjNYFWYf78MRxIxzTAvMzsRDdqoP48YZh+bZie22F6dg5Uhj6sXgoUYMPtGKTt15i0bH4lOkes1YrTysnUhN4sCEDMgh1I02as729BCdshHgVCOi+9yza/N6e9k0GztneU6MjVQ60RCrw+jyCMZmrcB4Wb4504zehZSxCaVprg85D40cL9OL7rYwQsqmLhE100Z8oQ8WQqZn3TxFwBSdJXG2twp1yhmFUh8SH5f14IrHYNHaKOLuwN0Dt1GnlqffvTNd/newsAqROtuIQTlixn0PrUfSp0h1tInCItWYJK6MwD3hCe+rRb9ssDPyZYuOKnQvjkAmEaoXMySe1OlceIHWw2/nyWhvBTzN4qE/0WOFZiic76pC59k2HLivGb0SBtLXqIR0mCEi7jIYwiEcQdRexozHkT5vLfPb+dHWu7AqtrbLrWHXS5BIum627HvJa6Hfqdet4fu8fsldZk2ePD3TunzJErwd769JK3a4y/DSFzznOVyBhlnrPFSJo/e52aa6L4FRaT9n9yPRZO+SrzY4nT5hCb2JVkwttqL3xAAyZxuRnD5ohCOZ/aCcYjCI4ZEIQuJZte4r5c8s1GvjKatln8BKF3rdAlru4/l5AZZ2VyKmeIRNwd+Mhuymtyp0n7fGKLd95X9HX6Swem+r1U9VmJM6O7/pRrTfb3soExg6YR8hZXkpvY67yta9ef64fSSYsXIjYXvuEww66tFb5r4Es/2NaOPOC02W+J1S/9n6Ku+zwIjUhmNDmFlWNhUULJjlLdEOoOUZIguVeEjc8ZfhCsTSzRhbUA+lNweu9KHcMns2DSXvkaYY2ud7kVkZwrAcLKybLcv1RqMPmkhVjq8Rj+IF965WZfBWylyXaTWP8MrruPTX23YrNCBFmqpyy26uwc0ZU6sM6sYgnTTCAmSAdHgQlfza98++Gjtb23Jn9Iknz44dLPQ7j+/yBmf1OreQcJXNyFN9o3GCxcypelTbg2Y4jGo5KmteP4CZPBUQYXYeDO4sL6tslJPdvMKoIcZMb2V+TO7ai1Sj7hXvZ7gxhm7LQ5UTznb7sO5ve1at9jnuiH0tUna73JpJUbixDr1ztgdYYrKr0H6iGQl74hGuQnLEOn3i7kZ0j9oTZRHPxWKYZTOf5qxJXb0bdaTwbNeZ+mqUw0N4uNny+zv1ujV8n9cO3GXWlKVQn5Btr5JHCadYUmKRNWnJ9bHDEqbl8VAWcULMJfNFTgk2yIu7ra/KPZhD8qQIuepDPcrGPekbFQG41IamuBkC5TnZktWVlBInaufTo+yhu+uRXtCIOPt3rteCtnffw1U2tW7UdHLHXAnXdnu2xuwCaajpad9b4WWyibnQAxNC4Uok71VOjnGVOT9ts6/xPXYUTW+V+mQHph8MkWptgDKCy/1UguV1NTbR+Lne7zUSf3aqC2O2SN1dicTEfvTPJzSbbkyviQlvBaob1aXkCBJz1rLpYge6+xsx7G6Q7jwZjd7VaN3XyP+FBh7r+rzBwPjcWyBKJ+LYwCSeTTkCROlQpfEaEwl7yd0rzXgdDtjnk+Z1Ot55kPTVziy/s1Aat2twc+ZfieFTrvMvUk2v5fhhtSOT0JISDv626sEug7s+Io3Kzm93fSp5tn9vHBgvAmypwFFWrnuWLFIv5A9exiC6ohP3lkjUCLxsnt35sXbIey33G3Uvh513yu5+mdQ5hXPTCfnfbh/2/Wth7O7PeoBTmJLwgm7Z0FSuSK1AZdwWnSZzxlL9pQ5DNEj5nEIkht5ZK65O+rEVK246r/xmWrJRRnuAvK7ejTSkrB4iVL43+g2P430K7e43jvgpkK5H/r3rV2mfHr91twOjL1MZMsrizJOvPqHGfAhH9kinrF2caZl5tza8yqkKaqhIrBoNfk6F8CibIX6KbaJx94dS59k4ZAnlUUSq1fdK+T1FqldeNHYsp97ybF9fmXMUuO/hLpuSN+Nsa0d/KqwI13Z7ttgpkIaZ/zCqO23Pq/O1/eQgZi4dRLdXeIbhvbXjSHOhccXtYvY1FKnF23dxW5aXRiBEqjlA9aHbfTyPAnrOAHLIsHhdSzhAW5uOy2DS0RkeDmtG2yICNV7wUW5y9p0EVB8wgtuVWbzcrzWBoYx9tJWmQbrzZDR6V6N1XyP/u0WN+5pwCHmDgXGNt0DUdoS6DkOWbRwDphxMrhMxXp2OmYeSl/vdZXQN6M78K4O6cp1fkWocgabxmhqf20uJ7vyo/2fPdM11osLJ1Lz1NCHjjMQUpuwn6LjrU8lzjvkQ5JSJ7C55OZZprhEJZWlOvdZ4b/BURKhJvv1ep5bRGGB8pO34jVn3OaHpbH9mH5CLm51Z7nU8Mlfqz/itEadmDhw5D6t5ekP20bt2mQodv2Vfo4okI79hREedTzNKXxhBJnvMUyvG5Ek2sixrXd90LGluqOwrfHh+9Wgbxk/UIbqnCvFUHO1HmtF9yPKESb07nphj85NE2tHmnHYz608nxor0FUb5PX7nqDfX/VbxXV6/5GZdkyeDi7w6UvIkHv+FPqfglDxq0sq2EXszXN7KXQSJTHPutBFlA5c7NMn9v3m+s/KQB52dJE/qxN9RfmvckU2mynXOvk0pdyiC5KE4Yu6l7WJlv7taf+KBcqar/ehSx1OcrCflZewn+bntq+Q5a2fDBuLM0R3TphkT3Wns0+R1lysEwwjLGUBmIWGGo0nIgh1Ws6sKLQ8pKyK6Oin6mdnXUKSq7G3s+80Xqfbh/fbSXTForMP71YBrZ6Mow4D1deYj1AwPYK6zsJcmwnsqlOOkcun7FT7aWaO7nEajL0OkyqNRU43onWtG56h5vEneYGDcy3zkqa6xaTtCd4chaeyJY0g5yLxovE5eGqZQ0eVB6rDogCR5kI0EaXmK1UGjzP0TUcQd3oZViFSJFfQUolZcqGzKKLJT2PEQhJDXpMHiSAYqz4Erx5rB+K5KxCeSGF4YzHoas4OGlicfQtLgzsd1jvQtkVhIPDiul3IUFqnmxiLrJIBMzHXusMnujHGwvqRlTo5EpGbONaOpRV3FCCFkTKZGMFYoFKdQudUzfWXji7qZywj92O/YaV15f4uxe1s8Rp5eL2v1Z2Z5yHjsbtJ9HJpDsKj1rvCcZ1Npk1VocJffvs7Nlv25vO6OIOryGOf6UYnL7MLUYi+G0+qKgpqv0t/n9UvuMht14hTOBfuEmih6T7fhgM65oUkrVz5bxKZgbAJS7eIWQcZ31skTcsqAfcat+hs/74WpziQmL/Zg6Fgz+g/XIjqqPrgjN+74E6lme5JjznJHHVp1UqjsYnP14SFK3sO7nSsIBW3vvof8r/Zj2XSlrcrqgiseNSWTL9emJytm19wUXPwRpuHGWgye63OeJyv5sPckSB5ExJ7sMx91XWhSn82vm2uKVEe78bST225r9/+mi1RzA5T/J4OYOxA1Tz4q03jh7v2YWlaOBMru7leMvC+BsXP782KVNkOkGhtMFlvRnWnD2MVBbePLDQZhRFNJDJ/rw9SSbD7Ri2DfIjXPxtKAlUfPub/P67jKFKnxOgydH8DUpSHjkbDtx7qUWC5T3ObCFcpc7je8K66HAbjLU1OLoYsjmDlrHX/l/t7j/1x9KEzZ17qFhHvgtq9zv8rjJmWJS7PZyOhUjEHEh/j0e53j/msvUkO2iNMNdPZxU9mJrH2CwhCGBp0DqzwpzDzKqkhsqK9yS+y7esSdOVHJOyIvXo/Ruf0YvFi4X6q7t9Ylvknp7B8AACAASURBVBUePOu9iEh11IuSnnzuZqvQtY7vrPqVkImzjbkNf45rXPfy8V1eO3CX2agTfyI13BJH/0MF7KlJyz3YRu+tzT9JQlMOWcWYXnGtlHntLVB/v6sanWcGMHVxyDzV4UgrplS+pfxlL/cX6EsLlb0EJtZEpLYmMWW1W9vpY9RDuBZD7idKSb5V+6i2VN/LKSSzHRg9Xo+WIx3KplkrTM31AAs5jztz/iDGJCxoeRDjp1vRL6fCxPwwbLYFL8eKmyn+78empV2zySLV2gBlH9Ghgqh7b3tdHXGRpRVYB5Gzs1JmtEoejHjM7CBp3nMzRKr5RC4r9k631KPz3MnB8vIEE/VRo0rZVidS9cLXsHNep2PN/q1D0d1LZp67+2VpS570Y28acg1uzvwrg7pyXcG6sgSql31UZswBawQz51tcD3fw5jBvcFZsH9pbmSuXfK7kOXvfvmZzMpLdNWw+wcs8EsZ1rI+dtvEYW/FM9uTOEbW/U1+NAc2HmFV/sw7L/TlPqxzrU5u1Se6cVKcgDRvCwYrTtU/YUM9JLTbY+Sn3niq0ZJoxdLIDQ7ONOCBHvenStScvJ2vzvVoOuymMGBvfatE+24L2zrC+3o3fKjx7peX1ubC0aIUieF2j/TyCllPWiQpP5J43n+VR+xulbB7f57UDN+tGnfgTqUWPk9OkVVb+jadFDbqOOqtAw0Nt5iZDj7La94rf34i4veFO8qTy4yi/Mu4o1zn7NtXGmyxSxRNvl0tsoOTZLru8xjI9momkhMMlnYK9QBrZ9MISjrEf/dO5/iFPSGvyIdxNSkxsWJw2+5Geq/N9pFnR1cIi9Z/NO68r+5iqzRWp1vmHfjdAmYeD+/e6lgeI0lkoYIX7mjF8yLn0VVD4KL9d0+X+UAXqOp35cJczbzBw5EXt6Mz32o5Q09jd9zHjvqzzPnX3yEujQMfqd7lf7iOduzJ4OvOvDOotddlHZHrWlQjUMz3oL+EMxWx8qCzdzsUdx03l2cieNEh8clMUyYkk+mW5bzaOOlt0q7ZzDFxWXcln9kYi96uEJ2QflqDWrfexVQ6vgNRRsU1Gav6M96Z3wTirNu87JQ922u48K/878mIcIaTEpSrX5T/1x9oAo1yTtZFnyIYmbz5DFmJTXZhe7MH4YgqZC21otzfZGJt25AEEzRheKhyTGGmsRsNEEkOn+zAlzxyXo+hsj5yu3rO2dgo3HWPazwxuyvytwe0aHvFntwPliVt5EzKDF2d+80RIId7U74y0VvlELWOfgibe1bpP9FAXps+5n0SoMKbmR95LntRJg6POlXFHnkxlHZnk7NvUtAv0pRo7ZvmQe6pC2Z1H5X/D9ifqYHCbbkTv0Rb0H00goetv5J7udMWpdDJ3tnE2D8Ym3EGk77fjuq1y6dJQ8qP+3n6fx4cmjVLHQztt89Xs6xz9lDtPNTF0Z1xPl3Nfw/+3okjd3MP7nSC6G78mVkkDmRxO7Qnv7ko0dFeZT+xorMeobql9bzXkcHfjqR4Sr6S7RnNf77yb5Si1UUYP9+p397ufdyxB6U0V2afuGLGh7rMq1fzmzZYLdKwOkVqBuu4Cj5tzdbTOjlwRqUpetCJ1Twy9T5QwyCjpRToSGFtOYVLOQFTiC82ntMjGmFocyLRg8IkuTF8awuTpZrSno7njaJS05AlE9pOMKu/rcIQyGHVtHLG0H+nzuVhUOXB7bF7zIAMl3VCN7JTvwtQl5/mnDmaNAW2dPKl22johaX3myIvsnG+sRe/pPmSs46TkgPShCc0xO1LOcAXiE84HHEye3u/Pw23nrZhItc9Gnqs1dzbLPac7jI1vIYllv9CHUXlqkOTHEtnTC/tdTyCyNnsaMbStOGB7ftW6cggWtT/K8RzpqUVDkXhoR98gaRbadKXe3/1eQpxcK0eOtN3XF/0/gvazLq+/u8xGnbhE6uHe/PZQ9F52zKnXBE61r8f7PTH0n+nITUY87mmIJPdJAR7XmpN6pXyO8isiVfm9s29T81qgL9XYMVt3ck+3mJT7ydmseypR11+Lpun9GJw/iMlLQ5hekIdPxFCniV+Wvs4+RzbcuT/PMxoZTSpnCOfybkzy7Q1YSlm9vLHZvKvXWu+1ItVm3poAyjjtHZ8eRtT1hEJ745j5KrGz5gZp5+f2xkYrdlYe7OB+DLImv4XKwu9yjKi22DxPqrUByjwwXZ85NaMhw+u6tjN7R/pZoAo0/r0xY3kuLfGRiwPILBcWszLg9p+zBILHaQSRJuUa5bGr+rz5sJPOY5Etm/73WlHr0dE58ivPx1Yfa+e+j9EhJtE0Ye+YdT4DXbvcLzFap8xHAXo+bs7V0ZrnpFabB0XLk2DsDTbxGDqPH8SkUVfOCYUsI3dO2Kcv6O1StA52h/OWd7MbgOwd+E3517jTDe+L4sBcT1aY+W4Tbntv2P8+Pakblp8y6q+ISJWnwjUdlUd21ueWa+3yGEK1DWMnNTuHjU2YEvs2ZO7kt38Tr0N7utLBS3hfHbrtHeRyXFQ2PlF9dKjEWMvDKrowLcL+rDyxyGd5pZ3YA7adDz+ve2LoPm4+xMPNavn/m/2qY2PZYAsyav9xdyPS8phZscvJrmy71T3Bq2g+jPotU6TG65FeNp8YJ/288XehB+PnzSfIDc7tR3taREoUsT2VSM7LI5c70OIRfpXNq6tPtc9JjXbXIWHsnrdWpXZVoeloG8YvDGB62SXs7fqrr8fYsod48jrMX45h8nqOvWwQFL6WBzH2RNI8crEIZ9JGkpncwzNmHGF4lUhoziOtTrdibN7jUbNFTsfI2tG2geXYyMwpj1ZVbJx9wII8Ol23uc5ORx6nnX1ggc+2Zf+Wr2V7SHX1qfts00Rq/Khs+ii80SCXYWvpsqTHU5YLWyVaZhP5A5MKoxHj2Ydx27uifpf3vsJ4ck1vj2sHsnpdOIreM+V59HI2ypU3MXsQnd3uDSW5792/aZhuRpN75+OeKJKdXnmuMHZMpmct75JaFvX9YDOm5QD6Ep7c4s6b9n+J0TwWyz4is+GoxF2a5Y1l8s+hjAw2I+2rrrxtpM2HWlb7vTy5TPGs+v5dKITIvS2YOmMdpWKnF8jX7SxSI2iYqEdCfbSlUgeVHfXonm1Ewj7mRvkuW9fZp9cV5ykcKz6Jyaaru1ehz/qSGM1Es+2k7HQK3cP3d3JkUpH+wpVWZaoF46d0T7orblc5uH74dAJxXUiN6z46u8SnWk0PYqMPASMHyctmymLpGnmqz14XnWjLnp5glNU+ls5OZ18jhk96l7+ys9r/hMVOU/rkE3UaJioQa1PCT+zr/byK1/1CK5oKPcZ0TxQHHmp0rTC46rEvifRDuX5dVy/uz/JO3nHZWFaTEp7jmOv+fsrKa9ZdlLrreNNEqjsj/J8NhgxsFQYskepYxleWMQPakRtLg448lxrmsFXqh/lkX0IGyMD2YIAiNaADKhvY9mhg27MeKVK3Z72yzbFeyQAZCBYDFKkUqRvuvmcnEKxOgPXB+iADZIAMkIEgMkCRSpFKkUoGyAAZIANkgAyQgcAxQJFKKAMHZRBnc8wTvQxkgAyQATJABjaWAYpUilSKVDJABsgAGSADZIAMBI4BilRCGTgoOVPd2Jkq7U17kwEyQAbIQBAZoEilSKVIJQNkgAyQATJABshA4BigSCWUgYMyiLM55oleBjJABsgAGSADG8sARSpFKkUqGSADZIAMkAEyQAYCxwBFKqEMHJScqW7sTJX2pr3JABkgA2QgiAxsf5HaOo5f/uEn+OJPz+OVw3dsSUEWjb2Ij8ffwDcibERBbETM0zpzGXkK7zzwKyxV12zJ9ks+1pkPOhrYLsjAtmVg+4vUZ87jiy9+Yvx99sP2Ta7IOzB2/jSu/+71bJ6MvP3qAc98RWOX8N+/fhufZ36OBY1IvX9yBjeX5nHzmUE8Ig217z7z/6UZvJjg4FBYIEyi962/4vk//Q0vffE3PPvBNeyPKjaLPoXM7/6Gl377G+fnPjvEmge+it+/9zh+9WiFZ/0Wzp+SF809d0rdZ9vA1/VtYDU25G8LM0b70D5kgAxsJgPbX6Sulyc1NY63f/s6vrjqLTDdFdtzYdEpTi3x/IWXSA0/ip/80218XmBwHh07bIrSp+7B/SJkEvfguojWpfvwdHj1javvnhF8cO6buNy3+rTc9tjs/+964S+GOBWBav8999aKJSib8KXL/xsvffFXZA43lSky9+KNnz6OP77Rg2GNyFxt+de77kvL3xG8cO0Gbn74CibWoazR2Kv4+JHb+PzQq8isAdellW37sc/ys07JABnYCgxsf5G6DgOmUbEPPobPRGR6Ccy8+7bjtd+JR/dVvP10C5pVj13etdJ4avDY4Gf4/OhneCfZ7S2SbM+pRqR+W5tuaQ3T9tZtP5H6CCZ/8ze8dPvPSH25CaH6FRz9w9/w0u9+g4TY7dinePaLv+G733/K2/Y+7Dt88gj++N638F8fKM3uvjqPda57X3nI2uA0rty6hVsfrY9IlbyMtH2Az4/exs2uyVXVSWnlWod6y9qMabMuyAAZIAOFGKBILXfAKFmkPoBfiqj9zVEM+rln1Yv4+OhtfJ5eRE+h622hcszy9lW24V3xpC6mQZFaqPG7RGr3Wzh521zavyv6PRz5zHxvCNZC9i/2XV0zfnH1cfzx5VY0F7u21O/Xue4LdRz5362/SA2FJvGjqdv4/JEPsKQJfcnPU6H653e0FxkgA2Qg6Axsnkg1YkVfx9snrTjNz6w4zT+9jt9efQBjbk+jJQqNuNL6dvzL1edx+09mrOkXv13Av9zn3BT1wA9fdi2tv4zXHtQDaV57HmejDTjxw0V8Zqf7p1fxwct92JsVD5bQtJfpPV5/+YzuPtZvfXpeTS/qJ/jJHl1aymd395vL+7ZIDTXhsohU27Oazbv5m5q7knjx2GHcWJSQgHnc/Jej+OCRNmRqlDRt8WOEDVjX5b2/zyGCTY+rGQdbW9+Cy98+Zqa/+E188EgLRgO4RPulH8tyfm6pX95/94dPZZf5H/TgJfrwOzj6m7/iefu3t/+KUz/+Pu5yM2vZ/qGFR/HH947gpS8pNnbVSyi0Bz9483H88flm1OxL4Acvy28eN/9++gBeGtTEtZZY96V1Rl04sngZ127cwi3xkN66hZsfvYvXnkijJpv3CbzyUe57+zr3642XJxTPpyVm3z6NUM0Ajr/8Lm783krjxrt45ViXcm2+vZqbf2V6U3sfKnhd6CvP4N1PbuHWJ1dwuis/ndJswd/TXmSADJCBzWBgk0XqT/DZb91i0hSet3+eRjQ7GIYQskXq5cfM3fpugXh7AScUkVC6SH0dn9lC2ZH26/jlM3daA2KJIlXZtGVv3sp/1Ynnb+FnR27j88Nv4BuqDVb7fm8H3rXFqUt0Xp+M5Qb9VYjUVyfTOQGs3OPGkUZF3JTS2GN48SkvoWx/7hTMvhtS9ClMfpATm9996/uoPW4u8z/zwvGcPVS7n/wDnrPFqev1pHZyEkLoSz34H+89jt8/myhgA0ukXn0Un7xtiVNbpMrr1QmcqSvFbqu5tgbHL9/MilOn6LyC01l7rEKk/uIVvPChTuBew3NfKZD38FN4R2JTp17FoWw+8q+fePlGNv/Xl4f1dVng974ZYhq0LRkgA2Rg3RjYdJEqou32bx7DifvuRDR0B5qPPobfGiLxOVxsVQYfe3ldvvvTy/jlhS4zrrO+D6/9VoSteGWV6xVoTMGqE4Pm9aqgvf3+EWSa7kAoeice+bEloK+O51eAnZ9CntFyRWrUWuofWl08pHugtTfavJuOYr/l2aypjOKRkRG8fZ8iUhXb+Y1Jta8zvLNPjeDpuysMQVbb1I8PRBifHylTcK+jSFXKadgquoI5WfL/zTXc5f7O+r/3qnhe/zeOPjWJO6zP7ug8h8Ef/xlHn9bzFwpV4NzLIjwfwDlPoWmJVEOYzuFXx/egORJCTWwv3hAP63uP4xdTXumv9eeWt/OTy3i8o85ivw5th0/jtfdeU0Sqel+/y/3WdYZ39iauvXwcw3eFDK/qM2+bwvjapYH89patjyYspW/j86MfYOkO9f6u94eewzV6UgvY0WWvrH35ubvf5P9kggxsHgObLlI/+3k6L+Zy7vKrxlL9L9VB3xaFny3gyS87l/bHvm+KSf0yewh+RWpeXlJHcV1EsU6I2vnRfaft8EtY7r/75+uyQWT/vePGEvyNx+7BN2L+oLPFZ7GNU/Z11x9Oos+xtB/Fvz4pHs8yvZ1aW/rLe2kdSxO6fi7L/3/B5Fe907dDBJ69+hYS9d7X5d07lcIn7z2O/3GyykM42CL1UfzXB3Y5rvnytzKmSM2UcL9V2e0IXjOW+W/gyrkJ1PlKq0SRevMaXvi6LYCtcj15xfB+OsMD8stsh8L86M787/Ls7ivvTId2IwNkgAwEkYFNF6k6YRk9bx7V5PiuZFGYA86fSNV5WgsIy5LzUyAt90CaXB+RGgpF8O1HjpqxorIUv/AgLk82YaoyZys3pLb49CtSi13nTj8w/1vL+LLMH/32H/Bd6+zU5z/7MybVI6iiT+HBf8vFsT7/2z/jyHPfQ21RwVqFl954HH/8aQrHtJt+LJH6Zh8m3TxkJjZYpIZQ8+ALuG7Hiv7+Jq7/8jVcmB0uIFhLFKmrOAXgUNcn+PzoJ6BI9W63gWlXbpb5v2MCynoiw2SgMAOBFKnNS8+ZnlQ1xq9kUZgrOEVqzhbSIGrrG/Hsg+P44Pw3LcH6TXwwFtPGS26+SN2A5X57mf+/vYPoV6/hGVes6UuffYovOQbXJtQefQuZq3/Bs5aYlRCA+WcKH43U/OgDhtjUH+4fLJFqdJw1Azhy7hVcuZaL7/TeiLRxIvUbfXI0G0UqBzdnv0Z70B5kYPsxEECReif+5QPzPNE3jykG30ki9c5XcVOOn1rjmFRdA66tb8Pb52Q5/kE8qwkB2P4iNY3eq7LM/2eMdodQax3wf/LCIwiF7kHXW+aB/g+OKyy6Bev8p/iuCNvbf0CX4zvXbyL1BQ73D6BIVcsiO/Ffv24sx9+8rNtUtlEi1Y5J/RW+6wgrcdlazTvf03tHBsgAGdiSDGy6SL3+Qjt6ZKNSKIRoUxfOvvW8eXTU7x7DAypUQROpdrzqFy/jzZP7lGOqvAbLEpb7Q+uzu//bR2bwtizv32luahKby8apc3NyXJT+Map96QdNb+uTg/hGreYYJKuO/IpZnVDezM92P/25sVv/1JLpBb3r+381jqWaf+oehKKPIPW+LO3/FaZIldMA/oKjz30Pic57sg3+js7v4Yg8PvWLz4uegWse7v8o3ki5Odkgkdp1GldkQ9Hvb+DKGY/jng69gHevXcaF2TTaZFOTUcd1aJt9DTdkw5McH6W2TeP9cVy+Kbv1b+LdxWk0qUeaOa71K2bt+7pew0+YJ18U2d0f8lNOR75c9+F3mjqmjfK5p01oEzKwngxsukjNP5JJvKgv47XDzs1R9hFU2k1MeQOKJQgdR0mZR1vZ91PjXb3DAQoJy31Y+Y0zTV3aucorlJYb8hqcutd82tTPGmvWbLD49jH7yCbN65PWY1XdtvQ8tsq5EWpLitTWNzAvu/llmd8u98PmEVSO81Ozu/2fQsYQo7mYVPW6566+gd12Ol6vda34lezgzzvcf4NE6vxl3LTOPb118zKO6/J56BVTjNrXOV5v4sqTusfEeh9b5dwItTqRGm38KW4dvY2P24scK2VtwjKOz/Iqp67s/GzN+ptc3+fu3/g/bUMGyIA/BoIlUuUg//fncMK1e9+ozJI8qRshUkMIdY/glfeVhwpYolgVwDkQSxGpIYTsJf9iT5wqYVCtidXh3NcfxPVsLOo8bp47jLfva3TtyHfC09nWhbe/fRQ3HWesbnWRai3zy2NRu9XyNmH/C3/Oxpo+/9s/oFf5/o5DbyDz/l/xXDYW9W94/nd/wdELj2ePpMrVuZpu7v2x7+gO998gkRrqwjO/sM9AvY4XtGeS1mHiyVfw7nX7OvG83sSNa5fxzLhrR77KX00az/yXa7hheFRzZ6CunUi1nzj1K3y30PFTRp66cOE9Ow/q2a65eihWT/yetiIDZIAMbC4Dmy5S9YJuc40SDChrYB618xl+vb+b3g1VDG3199bh/p8s7N2Ueq1ZeNc66H5ribeRtg+Mo9k+Plh4g5rdfrsWr5nlpCd1Uziz64GvHM/IABkolwGK1CALnjuewjtfl2eVf4QfxdZu2b9cWPi7teporMP9N/QpUpJ3OZD/GVyxHnUqG6Byjzhdq7KtTzrR2Kv4WJ40dejFgk+aMhmVcl7Au5ZHdyuVk21sffihXWlXMrA1GaBIDbJIlc1k9uD89Z9jQXu+5tYEjx3GRtebFQtqx5feuIzHuzY6D+XdL1q9iF/LZM1PG3DH015/BdOem7jKyw/Zpd3IABkgAxvDAEVqwEWqNIRo7EV8PP4qHuaRO1y2LJtXS6R+ch3vLh/HwFYSbpGn8M7Uz/Hd3T5WE2yRuhXLWXbdbsxgwUGZdiYDZGCjGdg8kcoOmYKLDJABMkAGyAAZIANkwIMBilQPw2z0bIH34wyVDJABMkAGyAAZIAM5BihSKVI5gyMDZIAMkAEyQAbIQOAYoEgllIGDkrPI3CyStqAtyAAZIANkYKcyQJFKkUqRSgbIABkgA2SADJCBwDFAkUooAwflTp0xstz0lpABMkAGyAAZyDFAkUqRSpFKBsgAGSADZIAMkIHAMUCRSigDByVnkblZJG1BW5ABMkAGyMBOZYAilSKVIpUMkAEyQAbIABkgA4FjgCKVUAYOyp06Y2S56S0hA2SADJABMpBjgCKVIpUilQyQATJABsgAGSADgWOAIpVQBg5KziJzs0jagrYgA2SADJCBncoARSpFKkUqGSADZIAMkAEyQAYCxwBFKqEMHJQ7dcbIctNbQgbIABkgA2QgxwBFKkUqRSoZIANkgAyQATJABgLHAEUqoQwclJxF5maRtAVtQQbIABkgAzuVAYpUilSKVDJABsgAGSADZIAMBI4BilRCGTgod+qMkeWmt4QMkAEyQAbIQI4BilSKVIpUMkAGyAAZIANkgAwEjgGKVEIZOCg5i8zNImkL2oIMkAEyQAZ2KgMUqRSpFKlkgAyQATJABsgAGQgcAxSphDJwUO7UGSPLTW8JGSADZIAMkIEcAxSpFKkUqWSADJABMkAGyAAZCBwDFKmEMnBQchaZm0XSFrQFGSADZIAM7FQGKFIpUilSyQAZIANkgAyQATIQOAYoUgll4KDcqTNGlpveEjJABsgAGSADOQYoUilSKVLJABkgA2SADJABMhA4BihSCWXgoOQsMjeLpC1oCzJABsgAGdipDFCkUqRSpJIBMkAGyAAZIANkIHAMUKQSysBBuVNnjCw3vSVkgAyQATJABnIMUKRSpFKkkgEyQAbIABkgA2QgcAxQpBLKwEHJWWRuFklb0BZkgAyQATKwUxmgSKVIpUglA2SADJABMkAGyEDgGKBIJZSBg3KnzhhZbnpLyAAZIANkgAzkGKBIpUilSCUDZIAMkAEyQAbIQOAYoEgllIGDkrPI3CyStqAtyAAZIANkYKcyQJFKkUqRSgbIABkgA2SADJCBwDFAkUooAwflTp0xstz0lpABMkAGyAAZyDFAkUqRSpFKBsgAGSADZIAMkIHAMUCRSigDByVnkblZJG1BW5ABMkAGyMBOZWB7i9Q7v4XvH38fHx3+1jYWYlXoXDiFl6//CFdv/tj4+9kH38E/H927jcvMDmundlgsN9knA2SADOwcBra3SK1fwvsLH+Kjme0qUu/A8H9+JStObZFqvv4Izz1JocrObOd0Zqxr1jUZIANkYHsxQJG6hZf7Iw+dxGXxnn7yr3j6m0lUSVnuSmL81RdN4XrjaYzXbC9g2QGxPskAGSADZIAM7AwGNlGkfguv2V7OcA9mv/Y63n/qQ3wkn518HZda2vOXq+W6kddx9UnrujMf4v2HlzB7Z7VyrZWupFPg77XuXAWnv/YOPlp4B5fqc5+ZDUDJoyJmT8xI2q/iRKga97Qu4Scn7fy8g598LYMO5Voz7Vdxwl3Gp97BT0amsEe5trRGdwcO/1SW93+E559ye0yT+Of3zO8ufNNdphBCNY/ilY9u4dbvr+OFB2sU22muLTt/TKu0+qS9aC8yQAbIABkgAyoDmy9SH1rCs8c1gvLMmzhXq1bWV3Hu0ff1wvPMFTybFZgbJVJfx6WvXNHm563UQFb4mSL1fbx/Qpf39/FadzJ7rVoxxd9/GU9/9GNcFW+pKiTFk7pyAZc/MeNT31hpy0//zBXcunXL/Hvr8fzv1fT4nvYhA2SADJABMkAGNoGBzRep4u088z7e+trD+HIkhFC4B9+eMQXdW6meLBRfTr1pCMIPHz6LmT17zM8jA5gZeR0fShoPn8Q+twF9xqSW50k1hfWHjy5h1shPNe7pedXMy9xZ3GPlxUzbuvahJzGxqxqhcBLT94v39sNVbOo6hOdkqf+Xj6BJ7lXTgC9/92m8YYnTbHzqTw9lbZgVvl86jtfoSc23i5sf/k8bkQEyQAbIABnYNAY2X6Q++SaeTVqi0wbh4KuGgHv/a1+1DNODc3Mf4qMnX8I3w6p3Vd4nceaoCF1Zfnd9t64i9X289RX3cv238NqZD/HRY0tIW3mxRer7U8ccYQChO8/iLRGpZW/qskTqT//J2N3/A/GqWrv7L1+dx/g3T+IN+V8nUt124v+b1gCzEwfWAeuADJABMkAGyICDgc0XqYqg8x6wLfEnos7z7wqe3buRIlUXw+q6fyiEUr203jZwp22JVEuYikC9/N4pPDxWZVbwxLwpUn9yv6PC/afvvh//p+3IABkgA2SADJCBjWNg64hUT3FqC9edJlK/igs3LO/ph0/j0ZkGRJQZWOSpC4Zn9Y1lTUyqTs5ncgAAGFdJREFUch0b28Y1NtqatiYDZIAMkAEy4J+BLSJSv4pLj32Ijx7/V8yUIrBKWu7/EK8dVA1XjeEBK97VtSRv7u7fbE/qnXj45+YO/ueevNPlLd2LR6+a32l395diQ17rsq3KCN+zsyUDZIAMkAEysF4MbBGRGspuNPrwobOYibf4O7rJjvs8cwUvtA14/uYee1PW0bNIy+atyABmv/amuQlKEzcaDJEaQuzJ7+Bnstx/43s4pTsn9cN5dOpEZs00XvjQ3N1//cVp1Oiu4WcUp2SADJABMkAGyMAmMrBlRGpo17fw2uP20r7m1eXtNFX9gLnhShMqoJ6TGqo9i7dkw5P7usev4Krc05V2UERqKLQXh3+aexyqvXHKfH0Rpw7doW9cYy/gun0E1a1reG6Qs8D1mgUyXbJFBsgAGSADZKA8BraOSBUlH/kqvv3Am3jfPsxfFZUuIZkFojqDZ2eu4EP7QQHWbxwiNRRCR/u/4q3sofzv4+rhk0hHrDADV9rBEanm0VPpi9/BD+z41Js/wuVfnsLhr3gIVGNGVINHX79hnZV6A68cKg+erI03cZbFPLDuyAAZIANkgAxsTwY2UaRuT4NumYZy7DXcNLyp9KRumTrjZEC/MkC70C5kgAyQgW3JAEXqjgO7Bk1fPY7XrltPnLr2HIZ3nA04QaIwJwNkgAyQATIQdAYoUneUQDuNK9lY1Fu4dfMKTnexkQa9kTJ/ZJQMkAEyQAZ2IgMUqTtRpN68gWv/5RlM3MVGvxMbPctM7skAGSADZGArMECRuqNEKhvlVmiUzCM5JQNkgAyQATIQAkUqReq2DLZm42YHTwbIABkgA2RgazNAkUqRSpFKBsgAGSADZIAMkIHAMUCRSigDByVnvlt75sv6Y/2RATJABsjAWjDgKVLXInGmQUjJABkgA2SADJABMkAGymGAIpWeVHpSyQAZIANkgAyQATIQOAYoUgll4KAsZ7bF33CWTgbIABkgA2RgezFAkUqRSpFKBsgAGSADZIAMkIHAMUCRSigDByVnwttrJsz6ZH2SATJABshAOQxQpFKkUqSSATJABsgAGSADZCBwDBQVqT+++nfAH/8O+P3f43+u/AMmWYmBq8RyZif8DWe1ZIAMkAEyQAbIQJAZ8C9SRaj+8d/hf738nyjSKNTJABkgA2SADJABMkAG1pWBoiLVUNg1/4gzS/8e/0eE6s3/iIuslHWtlCDPapg3zrrJABkgA2SADJCBjWDAn0g1ROk/4t1r4k39D/gxRSpFKhkgA2SADJABMkAGyMA6MlCCSA3BjE+lSN2I2QPvwVkqGSADZIAMkAEysJMZoEhdxxnATgaLZWfHSgbIABkgA2SADKyGgTJE6r/Hz2po9NUYnb8lP2SADJABMkAGyAAZKMxASSL1keX/29zh/+P/F8frCydMw9M+ZIAMkAEyQAbIABkgA+UyUJJIDdX8f/jgvf/LPDdVdvp//P/gDJfLGTRNBsgAGSADZIAMkAEysMYMUKSusUHLnS3wd5xpkgEyQAbIABkgA2Qgx0BJIvX4yt+by/0/+AdMcrmfMyYKfDJABsgAGSADZIAMrBMDJYlU8wgqbpziLCc3y6EtaAsyQAbIABkgA2RgPRgoQ6TynNT1qAimyQZOBsgAGSADZIAMkIEcAxSp6+SiJmQ5yGgL2oIMkAEyQAbIABkolQGKVIpUxtKQATJABsgAGSADZCBwDJQgUv8R7177O+CPXO4vdSbA6zl7JANkgAyQATJABshAaQz4E6k1/4gz5/8D/o+cjXrzP+IiZxuBm20Q/NLAp71oLzJABsgAGSADwWagqEg1d/SLB1X+/h3+18v/iQKNIp0MkAEyQAbIABkgA2RgXRnwL1J///f4nyv/gElWyLpWCGd1wZ7VsX5YP2SADJABMkAGNoaBoiKVFbExFUE7085kgAyQATJABsgAGcgxQJFKzzA9w2SADJABMkAGyAAZCBwDFKmEMnBQchaZm0XSFrQFGSADZIAM7FQGKFIpUilSyQAZIANkgAyQATIQOAYoUgll4KDcqTNGlpveEjJABsgAGSADOQYoUilSKVLJABkgA2SADJABMhA4BihSCWXgoOQsMjeLpC1oCzJABsgAGdipDFCkUqRSpJIBMkAGyAAZIANkIHAMUKQSysBBuVNnjCw3vSVkgAyQATJABnIMUKRSpFKkkgEyQAbIABkgA2QgcAxQpBLKwEHJWWRuFklb0BZkgAyQATKwUxmgSKVIpUglA2SADJABMkAGyEDgGKBIJZSBg3KnzhhZbnpLyAAZIANkgAzkGKBIpUilSCUDZIAMkAEyQAbIQOAYoEgllIGDkrPI3CyStqAtyAAZIANkYKcyQJFKkUqRSgbIABkgA2SADJCBwDFAkUooAwflTp0xstz0lpABMkAGyAAZyDFAkUqRSpFKBsgAGSADZIAMkIHAMUCRSigDByVnkblZJG1BW5ABMkAGyMBOZYAilSKVIpUMkAEyQAbIABkgA4FjgCKVUAYOyp06Y2S56S0hA2SADJABMpBjgCKVIpUilQyQATJABsgAGSADgWOAIpVQBg5KziJzs0jagrYgA2SADJCBncoARSpFKkUqGSADZIAMkAEyQAYCxwBFKqEMHJQ7dcbIctNbQgbIABkgA2QgxwBFKkUqRSoZIANkgAyQATJABgLHAEUqoQwclJxF5maRtAVtQQbIABkgAzuVAYpUilSKVDJABsgAGSADZIAMBI4BilRCGTgod+qMkeWmt4QMkAEyQAbIQI4BilSKVIpUMkAGyAAZIANkgAwEjgGKVEIZOCg5i8zNImkL2oIMkAEyQAZ2KgMUqRSpFKlkgAyQATJABsgAGQgcAxSphDJwUO7UGSPLTW8JGSADZIAMkIEcAxSpFKkUqWSADJABMkAGyAAZCBwDFKmEMnBQchaZm0XSFrQFGSADZIAM7FQGKFIpUilSyQAZIANkgAyQATIQOAa2nkjdHUP7dBSVu7xnVrHDBzE6XY3KsPc1vmYlfUmkZ2sR3b3KdAh+4MD3Vf+sN9YbGSADZIAMkIFNY2DridTBFsxcbEVyj4dw3B3D0MUUZhYaEV2tSLXvVeNxL4K7aeBSZJJJMkAGyAAZIAPbm4EtJ1LjR4cwmanKiqPKPRXZ9wJr3ZE+zJxtRLQ7gd5B53eeMO8KIawTnCJSzzUi6v5ubyWqC3hyPe/jTof/O+qOdtvenQ3rl/VLBsgAGSADpTBQnkgNR9F/cQQzJ+v04s4lvionujCz0ofuljIrp6YKiVQtkql6DC0OYfSwvK9F02wXMss96O6wxOjdjRhb7kH73XKfMBrmOtDp554iRhfb0LIv7BRNXiJVPpf77CuzPC77lFJhvJY2JwNkgAyQATJABnYCA2WJ1MhoG2ZWhtDf4wOScBW6L4xgZqEelasQZ+FYGOGWBCZ1nk1JN1yJ9rMDGFK9p/LZQi8G7404xac7HyI6zyfyPaaFRKpXPtxpb9b/e2LoXxhAZi5WuOyblb+1uu+uCOrSzRi/lMLMij1B0XNZ2VmPoYVBZFZGMLOSQmapC/2pSv1Ea1clkrMHMWmkO4KZ5UGMzdcj7hVmUmp5Ssi33RFV9zdiaGEA08uSf/nTl7c6tR/p83Y5zbyPn96PZL3eLnb6fl8r2+LoPztk5GF8unLN+DLyfcFMV+pneqEVBzp9rIbsS2DcsMcIZubzeY9O91j2su2mvAa9HZfKFa9fMx79tgdetzb9Cu1IO+oYKEOkWqLzQgIxHx1ieEQEbQrDIy4vpY/fujNcd2QAYxMRhFrq0N6viosKJOZ7kZ6qRvWeCkgIgPxVp1ow/kQLhhdTmDqzH01tEb0gKVWMel1fRpncZVyz/+9uNAduzaC9ZvfYzPLuqkQi04aprGDzFm1S3mi6A9O2kHG8pjDmFlp3xzG6pAgZ9fqlFjSsZiNdifk26qqmGt0LIsLdecoXqfHZAc111u+WD6IlXn5HWN2fwPAFZz7WRqRWouXUoEe+BzHYV6DvkFUdqatlK18a3ilSy6/zbdFXbGY/xXtz0kAGVsVA6SK1pxnTIjpHfXg4QhEcWBjBzIUk6la7ickIMWhDkwgEQyQmEJO40HAETfMH0dtXgcjuCkT2VCDWbYYDSEiA/MX2VaNdBsHlAaSP1aLaDY2X6Cz1c3e6m/n/NhepZgiJiJMBjE7H0Xu+gEjdXYdhEbPLXejujiBssRhpimPYEKNdOKCKN/HAn+lBf7o6e4pEeJ997QjS9/thXy8MSsq3wU8ELWdEgNkTrUpEvOKhw7UYEiG71IampnB2QhauqULTSVMElp33eD3GDJGcwtSpRrTM9hqicm1EagjR6YMYn4ujbq9lt92V2TzPnIl7rMLI5FTKNYj++y1vqqdIzRf0FGB6RmkX2oUMkIGgMFCiSA0jeTKFmYvNaPAjOmV5fmXE9H6uUrBV3n8QGTsGVsSjDEY1UbTPapZgNXkL7wqjcq+HuChVjHpdv8oyFoQiHEHDdCvG5OQCEQvLQ5haaEZTk1qmmClS8jxuTg/c0KDSAC0xa4gNWeKe67KWk1PInG1esyXigmUrx27xOIZONVrL75VoP1dApN7batjM8MK772VMukYwdqhISEgohLAR5qJfUjbKF65G57mUIYY945VLybfk1crf9HwMEXfe3f+LGJe6PxXPuzaS7jBsMDyq90rWHe5FZiWFsUNey/cRtJzoQLu1/G57J/2I1OJpKzyqZbLLs9KChPq59T4y2GJMmA1PeIFJmZlXitQ1b4OaOuE9PFimrVblTSNXO5er0kSqJTrV3fXe8FiCdrkNydUsj0rjjtVhdHkEY7N1hmc0+VAXZs40o3chBRm8m+b6kJ5vweCc/HVgcrkX3W1hhGoiWU9YYj6F6blY1ruUy7dssBrEzGIrDlieV9sDa9zH6/MNjWWzvWlOsWmIVUc+ViFSZxsxuOhcyjXSX2pGXCP6c/bzajy2cNTkOSui9eKjeNrue9r30gsRmeBIWbQCzRZCGg+cOx+2SJ087CHkZPJilS0zF/XRKRfOt9xfTrOYWTmIFl+xsBbLKyPInGs2w1t2RRCfaMWkeJLl1AttXSrcLDejwceA6l+klp521u523ejixWss77iUSfJLkeqDN3e74f9Z1nwwz2vJCxnYeAZKEqkNx4Yw4zeuzVoenD7qZ7AuXvBIUxWq7QHW9qRaHUvDXAo5j44Mipb4MTyeSSMsIDE/AocHUe2UaqqR7NN40rw8pn3NmDxd7x2TKzGNIvguHcQB46SB4uUrCH99o7nUeqoe1bbgD4dRLRtY5uvzN3wVGbQd97IHdxFXy73mRiKx864qdJ4V0TqE/u5y8m8LsM0XqaFuCVFxLYNb9us9Y8VwFhWpFWh6QuxR4JSK3VF0F/OkqtyFbBvpxXUoFEH72RHMnE8iYWyaym2GylzswtBEdZ7HNBSuQMOseEVVu6cwPldb4Ni0MOIPFfOkOhnwL1JLT9vm09ygOeI4cs78TjZJyopOK5L2GcY2x5p6tPNqTyCMVYjzB9Gbrlr9Az8c9em0kV0OvtIuZIAMkIHyGPAvUsWrsTyC6WP+RGcs04eZFVes31p16C6RKoPQ9NlWy5N6EJOqSLUGrYIi1StfXiLV63rrc3VQzInn8irIANuy/cxSbrm1KPAFBm3Hb+3rLjSjweWtqz5k7or2FPdF7OC4z7peW1zsmXGdqnBzvdeIGzX/Zp1qNlmtqlzF8m1/78qrIkB1k8DqVDPGHRvKxLO6P69+1fKV+t5mfE341tlwnxwnp/f+mvcedJ7kYXOsqUc7r1mRqtgvsxYP/dDln5/Rs0sGyAAZWDUDvkWq2dEX8CKplWE89cn/OaqlDpDGxillMJK85QZLlye1qEitRksmpvcyFRCpla3V+t+IHSxPauZCG1rWwpMaCkHi77I72S/1IT3XiIT7XFe1DgoM2g57+71OTTtw720x5+WRNDfYOY+UGsLk6f1oSu03T0EocFRX9Wib4Yn1FRdakm2K5dv+PoVxOf6q0doMJV7g7qQp4lzhNFlBtigTmggi+2rRL95dw5PcgoTteSwpn/kTLPs+uXaXf42Ds1LuV19nbmhb0uTXOm4qT5yXwvHuCsT695v2W6OTR8ouayl24bWrHvBYT2vYTskjedwABvyJVPvwfs9dtk7wzR3Mg2UuEzvTyutUZANUug0zFw6id64Z/RNRxFclUkXUDiF9vybOsIBINQbpiy1o8NppvR6Vt6sS8YkkhrNnfY7A0xPkd9D2e13J5bEFlrcXcMb2eJectpsR+14FRKrXPayNSV673mPTXcaGoqm52nVYGi6Wb+t7XUym8XQ1CVVQymzFjDuWwaXc4QokT5jnj+aJOy+7FPl8vURquMXyoC62aB99bN9X5xV1flY83jl6eG1PKMjrq4rYkNe72zH/JxNkgAw4GfAlUs2zTn0e3h9am8P7HRUVr8PQ+QFMXRrC1OlmtB/rchzaLQNX+cv9IlKVgV4dWIqJVMWb68ivmsZ6vd+VO6JHK7D8ik+/15VcDluABVikGg+AkN34Hfkbk0TYzYkITGHyaDQ/9rNkezgbnsmLbSMP/kIhJE+I/TrQpPGAGjHiKrvC68oItELUjsvV7Pwvh11bLK6lJ7XyXmu14HwzGjTllXza93UKUh1jxUVqnXWmrLb9rEn96uqcn5XDG39DbsjAzmTAh0i1zzr1d3i/eWTO2hzen4MyguR0HFF705AMxopAlIErN1iWuty/DiK1LWHGBC62Iqmev1nuwNfXjPH5RiSaKrJnfIZkyXek1ViGzpVdgXhPHGlZ4pXHxsrZoF73XjeRquTF695r9nlxsZdjKYRwrBJ1qYS5uU2OXXIf5r+rCgeMw+Xluypv27nz7+cIKsdviufbnCCOYFqO27LPEN0VRixthiDMqA/V6LNOF7jQgqTrnNTkvMSIewhY8coWPYLKWZ+2WNSy5yijv7RjE+bDFmRlwDj/2JWGWn/a9yVwLOfGJjLWwx2W27QTAO09Ss0Tr+dyKBkgA2RgVQwUF6n2OZLypKeixrYErd9zVIum5xwYs/cXkfpEXVY8eIrUljoc6DDPEfXeOLX2ItUewEUUrMmmI8tDpvUeLXt54byPrXLkqYTBPWv/cuttLX9n51vZBOO2j1pOqX/3915eUrX+8n9jpqOmnbWLUk+eR1CVmG/zcb+ao8GsCYjjPFbbM+xlE12Mp1En0gYs+3geQWULap0drc+UiWPWJiEfafuwiTopzaWt9A92Gpo86OveOs2iRz1nWElvLVllWj7GDtpeyzXZITs7nIEiInXzDu8v2GBFDCjng3qKVKVyN1KkZjdOnUsibnt/lbwULJvuunAFYmnX89gvDRR/lnxNNQ7Md2HKfv68JUQcAqvA4F5yPnV5X6/P7Hzb4krzqpYzJ1RSyCz1Ftx4VrZI9XMEVYn5NupAHrIwexCTdj0uD2L8ZAIN9ZqB3X7ow5IZgyoiO3OxF+nZOGKu0xty9evnmKhyRaqPtH3YZO1EqtR/F4YztbmVmfVilOlSYJABMkAGVsVAYZFqnXXq7/D+EMxzVNfg8P5ileoSqeY5qdWIDdYiOdWG6eUW80DyeAydxw9icnEAmWW9VzNseIoHMDThfJSqcaC/PDRAd5h/qhYH5gccIQe5AV8jHIqVh9+vCmLansyRATJABsgAGdh+DBQUqfGj8lxsn2edxuNIl3CO6qpgkhjNY7Hs87wbjkrcpfm4x1imK+/RjpHBZqTlMHP7YQAuURjr1hyK7rrGnd/ooYOYPFJNcVXETm678f/t14mwTlmnZIAMkAEysB4MFBSp63FDpkmQyQAZIANkgAyQATJABooxQJFKTyC9wWSADJABMkAGyAAZCBwDFKmEMnBQFptZ8XvOvskAGSADZIAMbH8GKFIpUilSyQAZIANkgAyQATIQOAYoUgll4KDk7Hj7z45Zx6xjMkAGyAAZKMYARSpFKkUqGSADZIAMkAEyQAYCxwBFKqEMHJTFZlb8nrNvMkAGyAAZIAPbnwGKVIpUilQyQAbIABkgA2SADASOAYpUQhk4KDk73v6zY9Yx65gMkAEyQAaKMUCRSpFKkUoGyAAZIANkgAyQgcAxQJFKKAMHZbGZFb/n7JsMkAEyQAbIwPZnoIhI7cRjr/83fPrpp/j01y/ggZrCBqk5tIh3/u1TfPrpv+HNU51FxE9paRPGwranfWgfMkAGyAAZIANkYDsxUESkSmV34uHv/9oQqv92+Ql0FvE81nzlO/iZIVR/jRcO1RQVqqWkvZ0Mz7KwIyEDZIAMkAEyQAbIgDcD/z+yC839N2l9EQAAAABJRU5ErkJggg==;imageBackground=none;imageBorder=#871F05;strokeWidth=5;" vertex="1" parent="1">
          <mxGeometry x="209" y="1830" width="383.89" height="230" as="geometry" />
        </mxCell>
        <mxCell id="VkaKx_zABPlLzsSXGRaH-101" style="edgeStyle=orthogonalEdgeStyle;rounded=0;orthogonalLoop=1;jettySize=auto;html=1;exitX=0.5;exitY=1;exitDx=0;exitDy=0;entryX=0.5;entryY=0;entryDx=0;entryDy=0;" edge="1" parent="1" source="VkaKx_zABPlLzsSXGRaH-99" target="VkaKx_zABPlLzsSXGRaH-98">
          <mxGeometry relative="1" as="geometry" />
        </mxCell>
        <mxCell id="VkaKx_zABPlLzsSXGRaH-99" value="示例" style="rounded=1;whiteSpace=wrap;html=1;fillColor=#a20025;fontColor=#ffffff;strokeColor=#6F0000;fontStyle=1;fontSize=14;" vertex="1" parent="1">
          <mxGeometry x="340.97" y="1734" width="119.03" height="40" as="geometry" />
        </mxCell>
      </root>
    </mxGraphModel>
  </diagram>
</mxfile>
